<?xml version="1.0" encoding="UTF-8"?>
<svg width="1682px" height="312px" viewBox="0 0 1682 312" version="1.1" xmlns="http://www.w3.org/2000/svg" xmlns:xlink="http://www.w3.org/1999/xlink">
    <!-- Generator: Sketch 58 (84663) - https://sketch.com -->
    <title>Group 15</title>
    <desc>Created with Sketch.</desc>
    <defs>
        <polygon id="path-1" points="0.537478849 0.470449844 499.763367 0.470449844 499.763367 272 0.537478849 272"></polygon>
        <polygon id="path-3" points="0 0.470449844 499.22555 0.470449844 499.22555 272.000169 0 272.000169"></polygon>
        <polygon id="path-5" points="0.538553807 0.468720249 500.762894 0.468720249 500.762894 271 0.538553807 271"></polygon>
        <polygon id="path-7" points="0 0.468720249 500.224001 0.468720249 500.224001 271.000169 0 271.000169"></polygon>
    </defs>
    <g id="Homepage" stroke="none" stroke-width="1" fill="none" fill-rule="evenodd">
        <g id="Group-15">
            <g id="Group-22" transform="translate(474.000000, 33.000000)">
                <mask id="mask-2" fill="white">
                    <use xlink:href="#path-1"></use>
                </mask>
                <g id="Clip-21"></g>
                <path d="M473.195685,184.538188 C471.335279,184.538188 469.519712,184.732232 467.767597,185.095746 C461.565398,166.986138 445.291286,153.562388 425.63308,151.564331 C427.040863,147.990201 427.823435,144.100007 427.823435,140.025939 C427.823435,122.653528 413.763367,108.572232 396.419036,108.572232 C396.135618,108.572232 395.85643,108.584942 395.574704,108.592568 C402.099239,100.686774 406.021404,90.5456648 406.021404,79.4868735 C406.021404,54.2400199 385.585702,33.7730791 360.37758,33.7730791 C343.068782,33.7730791 328.012098,43.4235713 320.273519,57.6446804 C313.070474,24.9394343 283.961337,0.470449844 249.142386,0.470449844 C211.346277,0.470449844 180.276904,29.2990604 176.650846,66.1995464 C171.091624,58.6530293 162.15423,53.7536399 152.07132,53.7536399 C135.209222,53.7536399 121.541709,67.4443065 121.541709,84.331185 C121.541709,89.5830729 122.86489,94.5248299 125.193147,98.8420885 C122.099239,98.2743626 118.910575,97.9752474 115.653384,97.9752474 C87.8691201,97.9752474 65.1237733,119.569166 63.2286802,146.915758 C56.6254653,139.75987 47.1796108,135.276531 36.6838409,135.276531 C16.72022,135.276531 0.537478849,151.48468 0.537478849,171.479646 C0.537478849,191.474612 16.72022,207.681914 36.6838409,207.681914 C39.1703046,207.681914 41.5983926,207.431098 43.9427242,206.951497 C49.3615059,227.683659 68.1889171,242.982599 90.5882403,242.982599 C111.680457,242.982599 129.595854,229.413951 136.14154,210.521391 C141.640694,245.360269 171.755753,272.000169 208.08824,272.000169 C240.972335,272.000169 268.762521,250.174923 277.819205,220.199845 C288.644078,226.587185 301.260829,230.254525 314.734602,230.254525 C337.208376,230.254525 357.301438,220.060032 370.664382,204.039995 C372.072166,230.402811 393.857276,251.345117 420.528173,251.345117 C435.880118,251.345117 449.606007,244.401914 458.767597,233.48802 C462.923266,236.185141 467.875042,237.758674 473.195685,237.758674 C487.868274,237.758674 499.763367,225.844057 499.763367,211.147584 C499.763367,196.451958 487.868274,184.538188 473.195685,184.538188" id="Fill-20" fill="#FFFFFF" mask="url(#mask-2)"></path>
            </g>
            <g id="Group-25">
                <mask id="mask-4" fill="white">
                    <use xlink:href="#path-3"></use>
                </mask>
                <g id="Clip-24"></g>
                <path d="M472.657868,184.538188 C470.797462,184.538188 468.981895,184.732232 467.22978,185.095746 C461.02758,166.986138 444.753469,153.562388 425.095262,151.564331 C426.503046,147.990201 427.285618,144.100007 427.285618,140.025939 C427.285618,122.653528 413.22555,108.572232 395.881218,108.572232 C395.5978,108.572232 395.318613,108.584942 395.036887,108.592568 C401.561421,100.686774 405.483587,90.5456648 405.483587,79.4868735 C405.483587,54.2400199 385.047885,33.7730791 359.839763,33.7730791 C342.530964,33.7730791 327.474281,43.4235713 319.735702,57.6446804 C312.53181,24.9394343 283.423519,0.470449844 248.604569,0.470449844 C210.80846,0.470449844 179.739086,29.2990604 176.113029,66.1995464 C170.553807,58.6530293 161.616413,53.7536399 151.533503,53.7536399 C134.671404,53.7536399 121.003892,67.4443065 121.003892,84.331185 C121.003892,89.5830729 122.327073,94.5248299 124.65533,98.8420885 C121.561421,98.2743626 118.372758,97.9752474 115.115567,97.9752474 C87.3313029,97.9752474 64.585956,119.569166 62.6908629,146.915758 C56.0876481,139.75987 46.6417936,135.276531 36.1460237,135.276531 C16.1824027,135.276531 -0.000338409475,151.48468 -0.000338409475,171.479646 C-0.000338409475,191.474612 16.1824027,207.681914 36.1460237,207.681914 C38.6316413,207.681914 41.0605753,207.431098 43.4049069,206.951497 C48.8236887,227.683659 67.6510998,242.982599 90.050423,242.982599 C111.141794,242.982599 129.058037,229.413951 135.603723,210.521391 C141.102876,245.360269 171.217936,272.000169 207.550423,272.000169 C240.434518,272.000169 268.224704,250.174923 277.280541,220.199845 C288.106261,226.587185 300.723012,230.254525 314.196785,230.254525 C336.670558,230.254525 356.763621,220.060032 370.126565,204.039995 C371.534349,230.402811 393.319459,251.345117 419.990355,251.345117 C435.342301,251.345117 449.06819,244.401914 458.22978,233.48802 C462.385448,236.185141 467.337225,237.758674 472.657868,237.758674 C487.330457,237.758674 499.22555,225.844057 499.22555,211.147584 C499.22555,196.451958 487.330457,184.538188 472.657868,184.538188" id="Fill-23" fill="#FFFFFF" mask="url(#mask-4)"></path>
            </g>
            <g id="Group-22" transform="translate(1181.000000, 41.000000)">
                <mask id="mask-6" fill="white">
                    <use xlink:href="#path-5"></use>
                </mask>
                <g id="Clip-21"></g>
                <path d="M474.142077,183.859739 C472.27795,183.859739 470.458752,184.053069 468.703132,184.415247 C462.488528,166.372219 446.181869,152.99782 426.484346,151.00711 C427.894945,147.446119 428.679082,143.570228 428.679082,139.511138 C428.679082,122.202596 414.590894,108.173069 397.211874,108.173069 C396.927889,108.173069 396.648143,108.185733 396.365853,108.193331 C402.903437,100.316602 406.833447,90.2127763 406.833447,79.1946424 C406.833447,54.0406081 386.356874,33.6489134 361.098336,33.6489134 C343.754919,33.6489134 328.668122,43.2639259 320.914066,57.4327514 C313.696615,24.8477452 284.529259,0.468720249 249.640671,0.468720249 C211.76897,0.468720249 180.637457,29.1913433 177.004148,65.9561657 C171.433808,58.4373931 162.478539,53.5560162 152.375462,53.5560162 C135.47964,53.5560162 121.784792,67.1963495 121.784792,84.0211439 C121.784792,89.2537234 123.11062,94.1773121 125.443534,98.4786984 C122.343437,97.9130598 119.148396,97.6150442 115.884691,97.6150442 C88.0448584,97.6150442 65.2540208,119.129574 63.3551376,146.375627 C56.7387162,139.246047 47.2739701,134.779191 36.7572086,134.779191 C16.7536604,134.779191 0.538553807,150.927751 0.538553807,170.849206 C0.538553807,190.770661 16.7536604,206.918378 36.7572086,206.918378 C39.2486452,206.918378 41.6815893,206.668483 44.0306096,206.190645 C49.4602289,226.846586 68.3252949,242.089281 90.7694168,242.089281 C111.903818,242.089281 129.855046,228.570518 136.413823,209.747415 C141.923975,244.458209 172.099264,271.000169 208.504417,271.000169 C241.45428,271.000169 269.300046,249.255163 278.374843,219.390287 C289.221366,225.754144 301.863351,229.408001 315.364072,229.408001 C337.882792,229.408001 358.016041,219.250988 371.405711,203.289848 C372.81631,229.555742 394.64499,250.421054 421.369229,250.421054 C436.751879,250.421054 450.505219,243.503378 459.685132,232.629608 C463.849112,235.316814 468.810792,236.884561 474.142077,236.884561 C488.844011,236.884561 500.762894,225.013748 500.762894,210.371306 C500.762894,195.729708 488.844011,183.859739 474.142077,183.859739" id="Fill-20" fill="#FFFFFF" mask="url(#mask-6)"></path>
            </g>
            <g id="Group-25" transform="translate(677.000000, 7.000000)">
                <mask id="mask-8" fill="white">
                    <use xlink:href="#path-7"></use>
                </mask>
                <g id="Clip-24"></g>
                <path d="M473.603184,183.859739 C471.739057,183.859739 469.919859,184.053069 468.16424,184.415247 C461.949636,166.372219 445.642976,152.99782 425.945453,151.00711 C427.356052,147.446119 428.140189,143.570228 428.140189,139.511138 C428.140189,122.202596 414.052001,108.173069 396.672981,108.173069 C396.388996,108.173069 396.10925,108.185733 395.82696,108.193331 C402.364544,100.316602 406.294554,90.2127763 406.294554,79.1946424 C406.294554,54.0406081 385.817981,33.6489134 360.559443,33.6489134 C343.216026,33.6489134 328.129229,43.2639259 320.375174,57.4327514 C313.156874,24.8477452 283.990366,0.468720249 249.101778,0.468720249 C211.230077,0.468720249 180.098564,29.1913433 176.465255,65.9561657 C170.894915,58.4373931 161.939646,53.5560162 151.83657,53.5560162 C134.940747,53.5560162 121.245899,67.1963495 121.245899,84.0211439 C121.245899,89.2537234 122.571727,94.1773121 124.904641,98.4786984 C121.804544,97.9130598 118.609504,97.6150442 115.345798,97.6150442 C87.5059655,97.6150442 64.7151279,119.129574 62.8162447,146.375627 C56.1998234,139.246047 46.7350772,134.779191 36.2183157,134.779191 C16.2147675,134.779191 -0.000339086294,150.927751 -0.000339086294,170.849206 C-0.000339086294,190.770661 16.2147675,206.918378 36.2183157,206.918378 C38.7089046,206.918378 41.1426964,206.668483 43.4917168,206.190645 C48.921336,226.846586 67.786402,242.089281 90.2305239,242.089281 C111.364077,242.089281 129.316153,228.570518 135.87493,209.747415 C141.385082,244.458209 171.560372,271.000169 207.965524,271.000169 C240.915387,271.000169 268.761153,249.255163 277.835103,219.390287 C288.682473,225.754144 301.324458,229.408001 314.825179,229.408001 C337.343899,229.408001 357.477148,219.250988 370.866818,203.289848 C372.277417,229.555742 394.106097,250.421054 420.830336,250.421054 C436.212986,250.421054 449.966326,243.503378 459.14624,232.629608 C463.310219,235.316814 468.271899,236.884561 473.603184,236.884561 C488.305118,236.884561 500.224001,225.013748 500.224001,210.371306 C500.224001,195.729708 488.305118,183.859739 473.603184,183.859739" id="Fill-23" fill="#FFFFFF" mask="url(#mask-8)"></path>
            </g>
        </g>
    </g>
</svg>