<?xml version="1.0" encoding="UTF-8"?>
<svg width="1323px" height="193px" viewBox="0 0 1323 193" version="1.1" xmlns="http://www.w3.org/2000/svg" xmlns:xlink="http://www.w3.org/1999/xlink">
    <!-- Generator: Sketch 58 (84663) - https://sketch.com -->
    <title>Group 15</title>
    <desc>Created with Sketch.</desc>
    <g id="Homepage" stroke="none" stroke-width="1" fill="none" fill-rule="evenodd">
        <g transform="translate(-117.000000, -2967.000000)" id="Group-15">
            <g transform="translate(117.000000, 2967.000000)">
                <path d="M621.36502,101.006143 C620.340098,101.006143 619.339719,101.111697 618.374887,101.311826 C614.959043,91.3746082 605.993722,84.0078265 595.165597,82.9117602 C595.940848,80.9501561 596.371637,78.8154445 596.371637,76.5794016 C596.371637,67.0466645 588.626744,59.3193124 579.072367,59.3193124 C578.91664,59.3193124 578.762605,59.3277567 578.607724,59.33029 C582.202147,54.9933126 584.362017,49.4276938 584.362017,43.3596409 C584.362017,29.5051261 573.105642,18.2742461 559.218831,18.2742461 C549.684766,18.2742461 541.390595,23.5696482 537.127561,31.3738432 C533.159054,13.4272348 517.125068,0 497.944375,0 C477.124314,0 460.009547,15.8194966 458.012175,36.0680132 C454.950103,31.9269429 450.02692,29.2382871 444.472365,29.2382871 C435.184586,29.2382871 427.65551,36.7511547 427.65551,46.0178973 C427.65551,48.8999269 428.384212,51.6113822 429.666424,53.9808445 C427.961887,53.6684065 426.205723,53.5045877 424.411474,53.5045877 C409.10619,53.5045877 396.576914,65.3535882 395.533372,80.360746 C391.895786,76.4333158 386.69331,73.9734997 380.911088,73.9734997 C369.914541,73.9734997 361,82.86785 361,93.8403353 C361,104.812821 369.914541,113.705482 380.911088,113.705482 C382.280472,113.705482 383.618542,113.56784 384.909217,113.304379 C387.895118,124.681345 398.266217,133.076639 410.605065,133.076639 C422.222829,133.076639 432.092045,125.630481 435.697471,115.264294 C438.726535,134.381279 455.31657,149 475.329219,149 C493.444364,149 508.752187,137.023491 513.741385,120.574896 C519.704724,124.079268 526.654901,126.092383 534.076491,126.092383 C546.455964,126.092383 557.523604,120.498053 564.88595,111.706723 C565.661201,126.174292 577.660665,137.6661 592.353196,137.6661 C600.809865,137.6661 608.371102,133.856045 613.417004,127.867368 C615.707211,129.347649 618.434131,130.209809 621.36502,130.209809 C629.447605,130.209809 636,123.672255 636,115.607132 C636,107.542853 629.447605,101.006143 621.36502,101.006143" id="Fill-1" fill="#83A5DB"></path>
                <path d="M418.36502,138.006143 C417.340098,138.006143 416.339719,138.111697 415.374887,138.311826 C411.959043,128.374608 402.993722,121.007827 392.165597,119.91176 C392.940848,117.950156 393.371637,115.815445 393.371637,113.579402 C393.371637,104.046665 385.626744,96.3193124 376.072367,96.3193124 C375.91664,96.3193124 375.762605,96.3277567 375.606878,96.33029 C379.202147,91.9933126 381.362017,86.4285382 381.362017,80.3587965 C381.362017,66.5051261 370.105642,55.2734017 356.218831,55.2734017 C346.684766,55.2734017 338.390595,60.5696482 334.127561,68.3738432 C330.159054,50.4272348 314.125068,37 294.944375,37 C274.124314,37 257.009547,52.8194966 255.012175,73.0680132 C251.950103,68.9260985 247.02692,66.2382871 241.472365,66.2382871 C232.184586,66.2382871 224.65551,73.7503103 224.65551,83.0178973 C224.65551,85.8999269 225.384212,88.6113822 226.666424,90.9808445 C224.961887,90.6684065 223.205723,90.5045877 221.411474,90.5045877 C206.10619,90.5045877 193.576914,102.353588 192.533372,117.360746 C188.895786,113.433316 183.69331,110.9735 177.911088,110.9735 C166.913694,110.9735 158,119.86785 158,130.840335 C158,141.812821 166.913694,150.705482 177.911088,150.705482 C179.280472,150.705482 180.618542,150.56784 181.909217,150.304379 C184.895118,161.681345 195.26537,170.076639 207.605065,170.076639 C219.222829,170.076639 229.092045,162.630481 232.697471,152.264294 C235.726535,171.381279 252.31657,186 272.329219,186 C290.443518,186 305.752187,174.023491 310.741385,157.574896 C316.704724,161.079268 323.654901,163.092383 331.076491,163.092383 C343.455964,163.092383 354.523604,157.498053 361.88595,148.706723 C362.661201,163.174292 374.660665,174.6661 389.353196,174.6661 C397.809865,174.6661 405.370255,170.856045 410.417004,164.867368 C412.706365,166.347649 415.434131,167.209809 418.36502,167.209809 C426.447605,167.209809 433,160.672255 433,152.607132 C433,144.542853 426.447605,138.006143 418.36502,138.006143" id="Fill-3" fill="#89A3D7"></path>
                <path d="M12.5066209,90.0924684 C13.3821691,90.0924684 14.2365483,90.1826343 15.0621377,90.3536968 C17.9809137,81.8831539 25.6423833,75.6044018 34.8949119,74.6698781 C34.2327468,72.9988587 33.8652537,71.1786864 33.8652537,69.2725614 C33.8652537,61.1466714 40.4826703,54.560344 48.6471144,54.560344 C48.7809022,54.560344 48.9121497,54.567928 49.0450908,54.570456 C45.9730515,50.8736522 44.1271182,46.1302493 44.1271182,40.9570834 C44.1271182,29.1487151 53.7462932,19.5759566 65.6136116,19.5759566 C73.7611205,19.5759566 80.8484879,24.0901527 84.4912424,30.7413659 C87.8825096,15.4451765 101.583907,4 117.975455,4 C135.765848,4 150.391905,17.4836011 152.098123,34.7423745 C154.714606,31.2124198 158.922149,28.9211935 163.669076,28.9211935 C171.605742,28.9211935 178.039412,35.3246611 178.039412,43.2230295 C178.039412,45.6802622 177.417045,47.9908699 176.322186,50.0107557 C177.777764,49.7444712 179.27822,49.6054303 180.812546,49.6054303 C193.890729,49.6054303 204.597988,59.704859 205.488778,72.4949406 C208.598074,69.1486885 213.043556,67.0512769 217.985238,67.0512769 C227.382562,67.0512769 235,74.6319579 235,83.9847788 C235,93.3375998 227.382562,100.917438 217.985238,100.917438 C216.815018,100.917438 215.671894,100.799464 214.568568,100.575313 C212.016438,110.271944 203.154265,117.427918 192.61043,117.427918 C182.683035,117.427918 174.248475,111.08091 171.167121,102.24549 C168.578581,118.540246 154.402153,131 137.300174,131 C121.820585,131 108.738168,120.792709 104.475586,106.772326 C99.3806413,109.758757 93.4406314,111.475281 87.0984113,111.475281 C76.5190124,111.475281 67.0624151,106.706597 60.7701537,99.2127117 C60.1088355,111.54438 49.853745,121.339604 37.2988589,121.339604 C30.0717763,121.339604 23.6101633,118.092787 19.2984697,112.987877 C17.3424579,114.249358 15.0113321,114.984168 12.5066209,114.984168 C5.59961301,114.984168 0,109.412418 0,102.53874 C0,95.6642183 5.59961301,90.0924684 12.5066209,90.0924684" id="Fill-12" fill="#89A3D7"></path>
                <path d="M1329.36502,108.006143 C1328.3401,108.006143 1327.33972,108.111697 1326.37489,108.311826 C1322.95904,98.3746082 1313.99372,91.0078265 1303.1656,89.9117602 C1303.94085,87.9501561 1304.37164,85.8154445 1304.37164,83.5794016 C1304.37164,74.0466645 1296.62674,66.3193124 1287.07237,66.3193124 C1286.91664,66.3193124 1286.76261,66.3277567 1286.60772,66.33029 C1290.20215,61.9933126 1292.36202,56.4276938 1292.36202,50.3596409 C1292.36202,36.5051261 1281.10564,25.2742461 1267.21883,25.2742461 C1257.68477,25.2742461 1249.3906,30.5696482 1245.12756,38.3738432 C1241.15905,20.4272348 1225.12507,7 1205.94438,7 C1185.12431,7 1168.00955,22.8194966 1166.01218,43.0680132 C1162.9501,38.9269429 1158.02692,36.2382871 1152.47236,36.2382871 C1143.18459,36.2382871 1135.65551,43.7511547 1135.65551,53.0178973 C1135.65551,55.8999269 1136.38421,58.6113822 1137.66642,60.9808445 C1135.96189,60.6684065 1134.20572,60.5045877 1132.41147,60.5045877 C1117.10619,60.5045877 1104.57691,72.3535882 1103.53337,87.360746 C1099.89579,83.4333158 1094.69331,80.9734997 1088.91109,80.9734997 C1077.91454,80.9734997 1069,89.86785 1069,100.840335 C1069,111.812821 1077.91454,120.705482 1088.91109,120.705482 C1090.28047,120.705482 1091.61854,120.56784 1092.90922,120.304379 C1095.89512,131.681345 1106.26622,140.076639 1118.60507,140.076639 C1130.22283,140.076639 1140.09205,132.630481 1143.69747,122.264294 C1146.72654,141.381279 1163.31657,156 1183.32922,156 C1201.44436,156 1216.75219,144.023491 1221.74138,127.574896 C1227.70472,131.079268 1234.6549,133.092383 1242.07649,133.092383 C1254.45596,133.092383 1265.5236,127.498053 1272.88595,118.706723 C1273.6612,133.174292 1285.66067,144.6661 1300.3532,144.6661 C1308.80986,144.6661 1316.3711,140.856045 1321.417,134.867368 C1323.70721,136.347649 1326.43413,137.209809 1329.36502,137.209809 C1337.44761,137.209809 1344,130.672255 1344,122.607132 C1344,114.542853 1337.44761,108.006143 1329.36502,108.006143" id="Fill-1" fill="#83A5DB"></path>
                <path d="M1126.36502,145.006143 C1125.3401,145.006143 1124.33972,145.111697 1123.37489,145.311826 C1119.95904,135.374608 1110.99372,128.007827 1100.1656,126.91176 C1100.94085,124.950156 1101.37164,122.815445 1101.37164,120.579402 C1101.37164,111.046665 1093.62674,103.319312 1084.07237,103.319312 C1083.91664,103.319312 1083.76261,103.327757 1083.60688,103.33029 C1087.20215,98.9933126 1089.36202,93.4285382 1089.36202,87.3587965 C1089.36202,73.5051261 1078.10564,62.2734017 1064.21883,62.2734017 C1054.68477,62.2734017 1046.3906,67.5696482 1042.12756,75.3738432 C1038.15905,57.4272348 1022.12507,44 1002.94438,44 C982.124314,44 965.009547,59.8194966 963.012175,80.0680132 C959.950103,75.9260985 955.02692,73.2382871 949.472365,73.2382871 C940.184586,73.2382871 932.65551,80.7503103 932.65551,90.0178973 C932.65551,92.8999269 933.384212,95.6113822 934.666424,97.9808445 C932.961887,97.6684065 931.205723,97.5045877 929.411474,97.5045877 C914.10619,97.5045877 901.576914,109.353588 900.533372,124.360746 C896.895786,120.433316 891.69331,117.9735 885.911088,117.9735 C874.913694,117.9735 866,126.86785 866,137.840335 C866,148.812821 874.913694,157.705482 885.911088,157.705482 C887.280472,157.705482 888.618542,157.56784 889.909217,157.304379 C892.895118,168.681345 903.26537,177.076639 915.605065,177.076639 C927.222829,177.076639 937.092045,169.630481 940.697471,159.264294 C943.726535,178.381279 960.31657,193 980.329219,193 C998.443518,193 1013.75219,181.023491 1018.74138,164.574896 C1024.70472,168.079268 1031.6549,170.092383 1039.07649,170.092383 C1051.45596,170.092383 1062.5236,164.498053 1069.88595,155.706723 C1070.6612,170.174292 1082.66067,181.6661 1097.3532,181.6661 C1105.80986,181.6661 1113.37026,177.856045 1118.417,171.867368 C1120.70636,173.347649 1123.43413,174.209809 1126.36502,174.209809 C1134.44761,174.209809 1141,167.672255 1141,159.607132 C1141,151.542853 1134.44761,145.006143 1126.36502,145.006143" id="Fill-3" fill="#89A3D7"></path>
                <path d="M719.506621,97.0924684 C720.382169,97.0924684 721.236548,97.1826343 722.062138,97.3536968 C724.980914,88.8831539 732.642383,82.6044018 741.894912,81.6698781 C741.232747,79.9988587 740.865254,78.1786864 740.865254,76.2725614 C740.865254,68.1466714 747.48267,61.560344 755.647114,61.560344 C755.780902,61.560344 755.91215,61.567928 756.045091,61.570456 C752.973051,57.8736522 751.127118,53.1302493 751.127118,47.9570834 C751.127118,36.1487151 760.746293,26.5759566 772.613612,26.5759566 C780.76112,26.5759566 787.848488,31.0901527 791.491242,37.7413659 C794.88251,22.4451765 808.583907,11 824.975455,11 C842.765848,11 857.391905,24.4836011 859.098123,41.7423745 C861.714606,38.2124198 865.922149,35.9211935 870.669076,35.9211935 C878.605742,35.9211935 885.039412,42.3246611 885.039412,50.2230295 C885.039412,52.6802622 884.417045,54.9908699 883.322186,57.0107557 C884.777764,56.7444712 886.27822,56.6054303 887.812546,56.6054303 C900.890729,56.6054303 911.597988,66.704859 912.488778,79.4949406 C915.598074,76.1486885 920.043556,74.0512769 924.985238,74.0512769 C934.382562,74.0512769 942,81.6319579 942,90.9847788 C942,100.3376 934.382562,107.917438 924.985238,107.917438 C923.815018,107.917438 922.671894,107.799464 921.568568,107.575313 C919.016438,117.271944 910.154265,124.427918 899.61043,124.427918 C889.683035,124.427918 881.248475,118.08091 878.167121,109.24549 C875.578581,125.540246 861.402153,138 844.300174,138 C828.820585,138 815.738168,127.792709 811.475586,113.772326 C806.380641,116.758757 800.440631,118.475281 794.098411,118.475281 C783.519012,118.475281 774.062415,113.706597 767.770154,106.212712 C767.108835,118.54438 756.853745,128.339604 744.298859,128.339604 C737.071776,128.339604 730.610163,125.092787 726.29847,119.987877 C724.342458,121.249358 722.011332,121.984168 719.506621,121.984168 C712.599613,121.984168 707,116.412418 707,109.53874 C707,102.664218 712.599613,97.0924684 719.506621,97.0924684" id="Fill-12" fill="#89A3D7"></path>
            </g>
        </g>
    </g>
</svg>