<?xml version="1.0" encoding="UTF-8"?>
<svg width="2514px" height="495px" viewBox="0 0 2514 495" version="1.1" xmlns="http://www.w3.org/2000/svg" xmlns:xlink="http://www.w3.org/1999/xlink">
    <!-- Generator: Sketch 58 (84663) - https://sketch.com -->
    <title>Group 15</title>
    <desc>Created with Sketch.</desc>
    <g id="Homepage" stroke="none" stroke-width="1" fill="none" fill-rule="evenodd">
        <g id="Group-15" fill="#CDDDFD">
            <path d="M1359.0898,271.330577 C1356.64386,271.330577 1354.25939,271.584356 1351.95513,272.062529 C1343.80598,248.316819 1322.42066,230.717905 1296.58987,228.098638 C1298.44104,223.411738 1299.46753,218.312114 1299.46753,212.970731 C1299.46753,190.193388 1280.99463,171.731626 1258.20323,171.731626 C1257.82898,171.731626 1257.46276,171.747654 1257.09253,171.757004 C1265.6667,161.390795 1270.8219,148.096777 1270.8219,133.597975 C1270.8219,100.497165 1243.96729,73.6633637 1210.84276,73.6633637 C1188.0968,73.6633637 1168.31271,86.3149202 1158.14399,104.961006 C1148.67698,62.0816866 1110.42934,30 1064.67411,30 C1015.00804,30 974.18347,67.7970593 969.418554,116.176707 C962.114131,106.283329 950.368245,99.8587106 937.118703,99.8587106 C914.962176,99.8587106 897.003855,117.808908 897.003855,139.947796 C897.003855,146.835895 898.742749,153.315277 901.799513,158.973215 C897.734965,158.230577 893.54478,157.837888 889.265043,157.837888 C852.754957,157.837888 822.867638,186.150286 820.377585,222.001261 C811.700491,212.620783 799.288987,206.745129 785.495456,206.745129 C759.26369,206.745129 738,227.994455 738,254.209837 C738,280.425219 759.26369,301.673209 785.495456,301.673209 C788.7634,301.673209 791.955159,301.344632 795.033309,300.716862 C802.155956,327.896605 826.89476,347.957176 856.330315,347.957176 C884.044352,347.957176 907.586915,330.165924 916.186486,305.395748 C923.413387,351.073316 962.988256,386 1010.72697,386 C1053.93868,386 1090.45812,357.387073 1102.35772,318.084703 C1116.58296,326.456742 1133.16193,331.269196 1150.8663,331.269196 C1180.39675,331.269196 1206.7996,317.903051 1224.35962,296.898154 C1226.20812,331.462869 1254.83504,358.920433 1289.8829,358.920433 C1310.0546,358.920433 1328.09178,349.817777 1340.13038,335.509978 C1345.59032,339.042851 1352.09814,341.10514 1359.0898,341.10514 C1378.37001,341.10514 1394,325.485703 1394,306.21719 C1394,286.950013 1378.37001,271.330577 1359.0898,271.330577" id="Fill-14"></path>
            <path d="M33.41984,231.841144 C35.7611018,231.841144 38.0434976,232.082641 40.2496352,232.542827 C48.0507195,209.733435 68.5240507,192.825962 93.2531268,190.310368 C91.4804572,185.807791 90.4971272,180.906744 90.4971272,175.773591 C90.4971272,153.893963 108.18235,136.156008 129.998896,136.156008 C130.358782,136.156008 130.709302,136.173449 131.063836,136.182841 C122.854703,126.227798 117.920661,113.453948 117.920661,99.5262799 C117.920661,67.7251501 143.626378,41.9440038 175.339104,41.9440038 C197.112839,41.9440038 216.054316,54.1006944 225.787275,72.0130634 C234.849965,30.8217253 271.4673,0 315.268964,0 C362.812633,0 401.898327,36.3104154 406.457767,82.7865129 C413.450781,73.2822643 424.694189,67.1146993 437.378477,67.1146993 C458.588971,67.1146993 475.783198,84.357585 475.783198,105.624079 C475.783198,112.242439 474.118895,118.46367 471.191649,123.901377 C475.080819,123.188961 479.093073,122.810616 483.192288,122.810616 C518.142644,122.810616 546.754202,150.008544 549.138275,184.454066 C557.44641,175.442203 569.325303,169.792515 582.532696,169.792515 C607.644401,169.792515 628,190.209745 628,215.392515 C628,240.580652 607.644401,260.992515 582.532696,260.992515 C579.406108,260.992515 576.347751,260.671861 573.400437,260.070801 C566.581344,286.183335 542.898478,305.454796 514.720389,305.454796 C488.190548,305.454796 465.650217,288.360833 457.41834,264.566671 C450.500246,308.449359 412.615954,342 366.911848,342 C325.545096,342 290.586713,314.514958 279.194802,276.758244 C265.576685,284.800094 249.70293,289.419395 232.756208,289.419395 C204.484469,289.419395 179.210882,276.579805 162.397946,256.40273 C160.62929,289.609909 133.225824,315.986748 99.6748735,315.986748 C80.3614704,315.986748 63.094999,307.241874 51.5693016,293.496669 C46.3409295,296.892386 40.1131731,298.872661 33.41984,298.872661 C14.9626698,298.872661 0,283.864964 0,265.354219 C0,246.847499 14.9626698,231.841144 33.41984,231.841144" id="Fill-16"></path>
            <path d="M922.089804,369.330577 C919.643858,369.330577 917.259395,369.584356 914.955127,370.062529 C906.805984,346.316819 885.420665,328.717905 859.589873,326.098638 C861.44104,321.411738 862.467535,316.312114 862.467535,310.970731 C862.467535,288.193388 843.994629,269.731626 821.203226,269.731626 C820.828983,269.731626 820.462759,269.747654 820.092526,269.757004 C828.666702,259.390795 833.8219,246.096777 833.8219,231.597975 C833.8219,198.497165 806.967286,171.663364 773.842764,171.663364 C751.096804,171.663364 731.312711,184.31492 721.143992,202.959671 C711.676979,160.081687 673.429336,128 627.67411,128 C578.008044,128 537.182134,165.797059 532.418554,214.176707 C525.114131,204.283329 513.368245,197.860046 500.118703,197.860046 C477.962176,197.860046 460.003855,215.808908 460.003855,237.947796 C460.003855,244.835895 461.742749,251.315277 464.799513,256.973215 C460.734965,256.230577 456.54478,255.837888 452.265043,255.837888 C415.754957,255.837888 385.867638,284.150286 383.377585,320.001261 C374.700491,310.620783 362.288987,304.745129 348.495456,304.745129 C322.26369,304.745129 301,325.994455 301,352.209837 C301,378.425219 322.26369,399.673209 348.495456,399.673209 C351.7634,399.673209 354.955159,399.344632 358.033309,398.716862 C365.15462,425.896605 389.89476,445.957176 419.330315,445.957176 C447.044352,445.957176 470.586915,428.165924 479.186486,403.395748 C486.413387,449.073316 525.986919,484 573.72697,484 C616.93868,484 653.458122,455.387073 665.357715,416.084703 C679.582962,424.456742 696.16193,429.269196 713.866301,429.269196 C743.396753,429.269196 769.799602,415.903051 787.359622,394.898154 C789.208116,429.462869 817.835038,456.920433 852.882902,456.920433 C873.054604,456.920433 891.091784,447.817777 903.130382,433.509978 C908.590321,437.042851 915.098141,439.10514 922.089804,439.10514 C941.370005,439.10514 957,423.485703 957,404.21719 C957,384.950013 941.370005,369.330577 922.089804,369.330577" id="Fill-18"></path>
            <path d="M2478.98337,282.330577 C2476.52997,282.330577 2474.13823,282.584356 2471.82694,283.062529 C2463.65295,259.316819 2442.20244,241.717905 2416.29289,239.098638 C2418.1497,234.411738 2419.17933,229.312114 2419.17933,223.970731 C2419.17933,201.193388 2400.6501,182.731626 2377.78921,182.731626 C2377.41383,182.731626 2377.04649,182.747654 2376.67512,182.757004 C2385.27544,172.390795 2390.44636,159.096777 2390.44636,144.597975 C2390.44636,111.497165 2363.50987,84.6633637 2330.28436,84.6633637 C2307.46905,84.6633637 2287.62464,97.3149202 2277.42492,115.961006 C2267.92904,73.0816866 2229.56479,41 2183.67007,41 C2133.85258,41 2092.90354,78.7970593 2088.1241,127.176707 C2080.79741,117.283329 2069.01571,110.858711 2055.72577,110.858711 C2033.5017,110.858711 2015.48862,128.808908 2015.48862,150.947796 C2015.48862,157.835895 2017.23282,164.315277 2020.2989,169.973215 C2016.22196,169.230577 2012.019,168.837888 2007.72622,168.837888 C1971.10482,168.837888 1941.12638,197.150286 1938.62874,233.001261 C1929.92519,223.620783 1917.47584,217.745129 1903.64026,217.745129 C1877.32852,217.745129 1856,238.994455 1856,265.209837 C1856,291.425219 1877.32852,312.673209 1903.64026,312.673209 C1906.91817,312.673209 1910.11966,312.344632 1913.20719,311.716862 C1920.35155,338.896605 1945.16578,358.957176 1974.69108,358.957176 C2002.48961,358.957176 2026.10395,341.165924 2034.72974,316.395748 C2041.97867,362.073316 2081.6742,397 2129.55846,397 C2172.90191,397 2209.53269,368.387073 2221.46856,329.084703 C2235.73718,337.456742 2252.36669,342.269196 2270.12504,342.269196 C2299.74552,342.269196 2326.22887,328.903051 2343.84243,307.898154 C2345.69656,342.462869 2374.41075,369.920433 2409.56547,369.920433 C2429.79867,369.920433 2447.89084,360.817777 2459.96615,346.509978 C2465.44273,350.042851 2471.97039,352.10514 2478.98337,352.10514 C2498.32235,352.10514 2514,336.485703 2514,317.21719 C2514,297.950013 2498.32235,282.330577 2478.98337,282.330577" id="Fill-14"></path>
            <path d="M1149.47306,242.841144 C1151.81805,242.841144 1154.10408,243.082641 1156.31373,243.542827 C1164.12723,220.733435 1184.63317,203.825962 1209.40162,201.310368 C1207.62613,196.807791 1206.64123,191.906744 1206.64123,186.773591 C1206.64123,164.893963 1224.35461,147.156008 1246.2059,147.156008 C1246.56636,147.156008 1246.91744,147.173449 1247.27254,147.182841 C1239.05033,137.227798 1234.10843,124.453948 1234.10843,110.52628 C1234.10843,78.7251501 1259.85508,52.9440038 1291.61831,52.9440038 C1313.42671,52.9440038 1332.39835,65.1006944 1342.14681,83.0130634 C1351.22393,41.8217253 1387.89957,11 1431.77098,11 C1479.39036,11 1518.53829,47.3104154 1523.10499,93.7865129 C1530.10914,84.2822643 1541.37045,78.1146993 1554.07494,78.1146993 C1575.31921,78.1146993 1592.54081,95.357585 1592.54081,116.624079 C1592.54081,123.242439 1590.87386,129.46367 1587.94195,134.901377 C1591.83732,134.188961 1595.85596,133.810616 1599.9617,133.810616 C1634.96771,133.810616 1663.62483,161.008544 1666.0127,195.454066 C1674.33406,186.442203 1686.23187,180.792515 1699.4603,180.792515 C1724.61199,180.792515 1745,201.209745 1745,226.392515 C1745,251.580652 1724.61199,271.992515 1699.4603,271.992515 C1696.32873,271.992515 1693.2655,271.671861 1690.31349,271.070801 C1683.48354,297.183335 1659.76297,316.454796 1631.54001,316.454796 C1604.96792,316.454796 1582.3917,299.360833 1574.14671,275.566671 C1567.2176,319.449359 1529.27299,353 1483.4961,353 C1442.06348,353 1407.04943,325.514958 1395.63938,287.758244 C1381.99958,295.800094 1366.10055,300.419395 1349.12684,300.419395 C1320.81008,300.419395 1295.49625,287.579805 1278.65654,267.40273 C1276.88507,300.609909 1249.43797,326.986748 1215.83359,326.986748 C1196.48943,326.986748 1179.19547,318.241874 1167.65142,304.496669 C1162.41472,307.892386 1156.17705,309.872661 1149.47306,309.872661 C1130.9865,309.872661 1116,294.864964 1116,276.354219 C1116,257.847499 1130.9865,242.841144 1149.47306,242.841144" id="Fill-16"></path>
            <path d="M2040.98337,380.330577 C2038.52997,380.330577 2036.13823,380.584356 2033.82694,381.062529 C2025.65295,357.316819 2004.20244,339.717905 1978.29289,337.098638 C1980.1497,332.411738 1981.17933,327.312114 1981.17933,321.970731 C1981.17933,299.193388 1962.6501,280.731626 1939.78921,280.731626 C1939.41383,280.731626 1939.04649,280.747654 1938.67512,280.757004 C1947.27544,270.390795 1952.44636,257.096777 1952.44636,242.597975 C1952.44636,209.497165 1925.50987,182.663364 1892.28436,182.663364 C1869.46905,182.663364 1849.62464,195.31492 1839.42492,213.959671 C1829.92904,171.081687 1791.56479,139 1745.67007,139 C1695.85258,139 1654.9022,176.797059 1650.1241,225.176707 C1642.79741,215.283329 1631.01571,208.860046 1617.72577,208.860046 C1595.5017,208.860046 1577.48862,226.808908 1577.48862,248.947796 C1577.48862,255.835895 1579.23282,262.315277 1582.2989,267.973215 C1578.22196,267.230577 1574.019,266.837888 1569.72622,266.837888 C1533.10482,266.837888 1503.12638,295.150286 1500.62874,331.001261 C1491.92519,321.620783 1479.47584,315.745129 1465.64026,315.745129 C1439.32852,315.745129 1418,336.994455 1418,363.209837 C1418,389.425219 1439.32852,410.673209 1465.64026,410.673209 C1468.91817,410.673209 1472.11966,410.344632 1475.20719,409.716862 C1482.35021,436.896605 1507.16578,456.957176 1536.69108,456.957176 C1564.48961,456.957176 1588.10395,439.165924 1596.72974,414.395748 C1603.97867,460.073316 1643.67286,495 1691.55846,495 C1734.90191,495 1771.53269,466.387073 1783.46856,427.084703 C1797.73718,435.456742 1814.36669,440.269196 1832.12504,440.269196 C1861.74552,440.269196 1888.22887,426.903051 1905.84243,405.898154 C1907.69656,440.462869 1936.41075,467.920433 1971.56547,467.920433 C1991.79867,467.920433 2009.89084,458.817777 2021.96615,444.509978 C2027.44273,448.042851 2033.97039,450.10514 2040.98337,450.10514 C2060.32235,450.10514 2076,434.485703 2076,415.21719 C2076,395.950013 2060.32235,380.330577 2040.98337,380.330577" id="Fill-18"></path>
        </g>
    </g>
</svg>