<?xml version="1.0" encoding="UTF-8"?>
<svg width="116px" height="63px" viewBox="0 0 116 63" version="1.1" xmlns="http://www.w3.org/2000/svg" xmlns:xlink="http://www.w3.org/1999/xlink">
    <!-- Generator: Sketch 58 (84663) - https://sketch.com -->
    <title>Group 11</title>
    <desc>Created with Sketch.</desc>
    <defs>
        <polygon id="path-1" points="0.697270073 0.77448 115.807372 0.77448 115.807372 62.788908 0.697270073 62.788908"></polygon>
    </defs>
    <g id="Homepage" stroke="none" stroke-width="1" fill="none" fill-rule="evenodd">
        <g transform="translate(-19.000000, -2749.000000)" id="Group-11">
            <g transform="translate(19.000000, 2749.000000)">
                <mask id="mask-2" fill="white">
                    <use xlink:href="#path-1"></use>
                </mask>
                <g id="Clip-10"></g>
                <path d="M6.82325547,42.813708 C7.25338686,42.813708 7.67081752,42.857388 8.07470073,42.941388 C9.50480292,38.806068 13.258292,35.739228 17.788219,35.282268 C17.4647737,34.465788 17.2861168,33.577068 17.2861168,32.646348 C17.2861168,28.679028 20.5273431,25.463508 24.5263796,25.463508 C24.5907299,25.463508 24.655927,25.466868 24.7202774,25.468548 C23.2148175,23.662548 22.3105255,21.346668 22.3105255,18.821628 C22.3105255,13.055028 27.0241898,8.380428 32.8368905,8.380428 C36.8266131,8.380428 40.2998394,10.584588 42.0821752,13.832868 C43.7434307,6.362748 50.4561898,0.774228 58.486438,0.774228 C67.1999854,0.774228 74.3640438,7.358988 75.1997518,15.786708 C76.4816788,14.062188 78.5425839,12.943308 80.8668175,12.943308 C84.7549343,12.943308 87.9072555,16.070628 87.9072555,19.927068 C87.9072555,21.127428 87.6015912,22.255548 87.0656204,23.240868 C87.7785547,23.111508 88.5135036,23.043468 89.2628467,23.043468 C95.6707883,23.043468 100.91619,27.974268 101.352248,34.221348 C102.874642,32.586708 105.053241,31.561908 107.473153,31.561908 C112.076745,31.561908 115.807372,35.264628 115.807372,39.830868 C115.807372,44.397948 112.076745,48.098988 107.473153,48.098988 C106.900774,48.098988 106.340248,48.041868 105.79835,47.933508 C104.550292,52.666908 100.209182,56.162148 95.0433723,56.162148 C90.1789927,56.162148 86.0487153,53.062548 84.5398686,48.747468 C83.2723358,56.704788 76.3292701,62.788908 67.9510219,62.788908 C60.3686861,62.788908 53.9615912,57.804348 51.8727445,50.957508 C49.3774745,52.417428 46.4656204,53.254908 43.3598686,53.254908 C38.1779708,53.254908 33.5455912,50.926428 30.4635474,47.267388 C30.1401022,53.288508 25.1173869,58.072308 18.9676934,58.072308 C15.4275766,58.072308 12.2634015,56.485548 10.15,53.993268 C9.19151825,54.608988 8.05014599,54.967668 6.82325547,54.967668 C3.43978102,54.967668 0.697270073,52.246908 0.697270073,48.890268 C0.697270073,45.534468 3.43978102,42.813708 6.82325547,42.813708" id="Fill-9" fill="#89A3D7" mask="url(#mask-2)"></path>
            </g>
        </g>
    </g>
</svg>