<?xml version="1.0" encoding="UTF-8"?>
<svg width="47px" height="26px" viewBox="0 0 47 26" version="1.1" xmlns="http://www.w3.org/2000/svg" xmlns:xlink="http://www.w3.org/1999/xlink">
    <!-- Generator: Sketch 58 (84663) - https://sketch.com -->
    <title>Fill 7</title>
    <desc>Created with Sketch.</desc>
    <g id="Homepage" stroke="none" stroke-width="1" fill="none" fill-rule="evenodd">
        <g transform="translate(-1243.000000, -2756.000000)" fill="#89A3D7" id="Fill-7">
            <path d="M1287.49851,2773.62541 C1287.32295,2773.62541 1287.15243,2773.64338 1286.98779,2773.67846 C1286.40316,2771.94484 1284.87102,2770.6596 1283.02136,2770.46793 C1283.15324,2770.12565 1283.22631,2769.75343 1283.22631,2769.36324 C1283.22631,2767.69979 1281.90333,2766.35123 1280.27039,2766.35123 C1280.24351,2766.35123 1280.21747,2766.35208 1280.19143,2766.35294 C1280.80546,2765.59651 1281.17506,2764.62531 1281.17506,2763.56683 C1281.17506,2761.14866 1279.25064,2759.18914 1276.87683,2759.18914 C1275.24808,2759.18914 1273.83018,2760.11328 1273.10191,2761.47468 C1272.42403,2758.34372 1269.68314,2756 1266.40466,2756 C1262.84646,2756 1259.92161,2758.76044 1259.58058,2762.29442 C1259.05726,2761.57137 1258.21559,2761.10245 1257.2664,2761.10245 C1255.67882,2761.10245 1254.39195,2762.41336 1254.39195,2764.03061 C1254.39195,2764.53375 1254.51627,2765.00609 1254.73551,2765.41938 C1254.44403,2765.36548 1254.14416,2765.33638 1253.8384,2765.33638 C1251.22183,2765.33638 1249.08069,2767.40372 1248.90261,2770.02297 C1248.28102,2769.33757 1247.39147,2768.90801 1246.4028,2768.90801 C1244.52374,2768.90801 1243,2770.46023 1243,2772.37525 C1243,2774.28942 1244.52374,2775.84078 1246.4028,2775.84078 C1246.63632,2775.84078 1246.86564,2775.81767 1247.08739,2775.77147 C1247.59643,2777.75666 1249.36881,2779.22159 1251.47803,2779.22159 C1253.46376,2779.22159 1255.15047,2777.9218 1255.76702,2776.11288 C1256.28445,2779.4492 1259.11942,2782 1262.53986,2782 C1265.63607,2782 1268.2518,2779.91042 1269.10523,2777.03959 C1270.1233,2777.65226 1271.31189,2778.00309 1272.58027,2778.00309 C1274.69621,2778.00309 1276.58787,2777.02676 1277.84617,2775.49251 C1277.97805,2778.01678 1280.02847,2780.02251 1282.54004,2780.02251 C1283.98483,2780.02251 1285.27673,2779.35764 1286.14024,2778.31285 C1286.53168,2778.57041 1286.99703,2778.72101 1287.49851,2778.72101 C1288.88029,2778.72101 1290,2777.58039 1290,2776.17364 C1290,2774.76604 1288.88029,2773.62541 1287.49851,2773.62541"></path>
        </g>
    </g>
</svg>