<?xml version="1.0" encoding="UTF-8"?>
<svg width="20px" height="20px" viewBox="0 0 20 20" version="1.1" xmlns="http://www.w3.org/2000/svg" xmlns:xlink="http://www.w3.org/1999/xlink">
    <!-- Generator: Sketch 58 (84663) - https://sketch.com -->
    <title>LinkedIn__x28_alt_x29_</title>
    <desc>Created with Sketch.</desc>
    <g id="Homepage" stroke="none" stroke-width="1" fill="none" fill-rule="evenodd">
        <g transform="translate(-728.000000, -3334.000000)" fill="#031D52" fill-rule="nonzero" id="LinkedIn__x28_alt_x29_">
            <path d="M746.523179,3334 L729.477751,3334 C728.661547,3334 728,3334.64136 728,3335.43296 L728,3352.56644 C728,3353.35808 728.66178,3354 729.477751,3354 L746.523179,3354 C747.339197,3354 748,3353.35766 748,3352.56644 L748,3335.43296 C748,3334.64159 747.339197,3334 746.523179,3334 Z M734.06343,3350.74136 L731.041573,3350.74136 L731.041573,3341.7116 L734.06343,3341.7116 L734.06343,3350.74136 Z M732.552804,3340.47799 L732.532483,3340.47799 C731.519122,3340.47799 730.862225,3339.78497 730.862225,3338.91735 C730.862225,3338.03224 731.538419,3337.35801 732.571868,3337.35801 C733.605411,3337.35801 734.241151,3338.03206 734.261238,3338.91735 C734.261238,3339.78516 733.605643,3340.47799 732.552804,3340.47799 Z M744.956335,3350.74136 L741.935454,3350.74136 L741.935454,3345.91013 C741.935454,3344.69618 741.497755,3343.86785 740.405298,3343.86785 C739.569564,3343.86785 739.073462,3344.42667 738.855612,3344.9662 C738.774889,3345.15889 738.754895,3345.4284 738.754895,3345.69753 L738.754895,3350.74117 L735.734572,3350.74117 C735.734572,3350.74117 735.774097,3342.55835 735.734572,3341.71147 L738.75536,3341.71147 L738.75536,3342.99163 C739.156371,3342.37649 739.872973,3341.49901 741.477156,3341.49901 C743.465471,3341.49901 744.956335,3342.78884 744.956335,3345.56366 L744.956335,3350.74136 Z M738.751405,3343.06366 C738.762528,3343.04542 738.77806,3343.02347 738.793491,3343.00213 L738.793491,3343.06366 L738.751405,3343.06366 Z"></path>
        </g>
    </g>
</svg>
