<?xml version="1.0" encoding="UTF-8"?>
<svg width="20px" height="20px" viewBox="0 0 20 20" version="1.1" xmlns="http://www.w3.org/2000/svg" xmlns:xlink="http://www.w3.org/1999/xlink">
    <!-- Generator: Sketch 58 (84663) - https://sketch.com -->
    <title>Facebook__x28_alt_x29_</title>
    <desc>Created with Sketch.</desc>
    <g id="Homepage" stroke="none" stroke-width="1" fill="none" fill-rule="evenodd">
        <g transform="translate(-692.000000, -3334.000000)" fill="#031D52" fill-rule="nonzero" id="Facebook__x28_alt_x29_">
            <path d="M712,3337.33356 C712,3335.582 710.418667,3334 708.666667,3334 L695.333333,3334 C693.581333,3334 692,3335.582 692,3337.33356 L692,3350.66644 C692,3352.418 693.581333,3354 695.333556,3354 L702,3354 L702,3346.44444 L699.555556,3346.44444 L699.555556,3343.11111 L702,3343.11111 L702,3341.81244 C702,3339.57267 703.681778,3337.55556 705.75,3337.55556 L708.444444,3337.55556 L708.444444,3340.88889 L705.75,3340.88889 C705.455111,3340.88889 705.111111,3341.24689 705.111111,3341.78311 L705.111111,3343.11111 L708.444444,3343.11111 L708.444444,3346.44444 L705.111111,3346.44444 L705.111111,3354 L708.666667,3354 C710.418667,3354 712,3352.418 712,3350.66644 L712,3337.33356 Z"></path>
        </g>
    </g>
</svg>
