<?xml version="1.0" encoding="UTF-8"?>
<svg width="120px" height="17px" viewBox="0 0 120 17" version="1.1" xmlns="http://www.w3.org/2000/svg" xmlns:xlink="http://www.w3.org/1999/xlink">
    <!-- Generator: Sketch 58 (84663) - https://sketch.com -->
    <title>logo-dark</title>
    <desc>Created with Sketch.</desc>
    <defs>
        <linearGradient x1="99.1638697%" y1="98.9625397%" x2="39.8164866%" y2="43.0054575%" id="linearGradient-1">
            <stop stop-color="#01D5FE" offset="0%"></stop>
            <stop stop-color="#01C7F9" offset="12%"></stop>
            <stop stop-color="#01A0EC" offset="34%"></stop>
            <stop stop-color="#0064D6" offset="63%"></stop>
            <stop stop-color="#0054D1" offset="71%"></stop>
            <stop stop-color="#005FD5" offset="79%"></stop>
            <stop stop-color="#007DE0" offset="93%"></stop>
            <stop stop-color="#008CE5" offset="99%"></stop>
        </linearGradient>
        <linearGradient x1="55.58707%" y1="53.4857827%" x2="-0.264058921%" y2="-0.166829282%" id="linearGradient-2">
            <stop stop-color="#9B83E5" offset="4%"></stop>
            <stop stop-color="#8D7AE4" offset="6%"></stop>
            <stop stop-color="#6B64E0" offset="14%"></stop>
            <stop stop-color="#5153DE" offset="21%"></stop>
            <stop stop-color="#4249DD" offset="28%"></stop>
            <stop stop-color="#3D46DC" offset="33%"></stop>
            <stop stop-color="#4149DC" offset="50%"></stop>
            <stop stop-color="#4E51DE" offset="67%"></stop>
            <stop stop-color="#625EE0" offset="85%"></stop>
            <stop stop-color="#7A6EE2" offset="100%"></stop>
        </linearGradient>
        <linearGradient x1="99.1638697%" y1="98.9625397%" x2="39.8164866%" y2="43.0054575%" id="linearGradient-3">
            <stop stop-color="#01D5FE" offset="0%"></stop>
            <stop stop-color="#01C7F9" offset="12%"></stop>
            <stop stop-color="#01A0EC" offset="34%"></stop>
            <stop stop-color="#0064D6" offset="63%"></stop>
            <stop stop-color="#0054D1" offset="71%"></stop>
            <stop stop-color="#005FD5" offset="75%"></stop>
            <stop stop-color="#007DE0" offset="83%"></stop>
            <stop stop-color="#008CE5" offset="86%"></stop>
            <stop stop-color="#01D3FD" offset="100%"></stop>
        </linearGradient>
    </defs>
    <g id="Homepage" stroke="none" stroke-width="1" fill="none" fill-rule="evenodd">
        <g id="About" transform="translate(-120.000000, -30.000000)" fill-rule="nonzero">
            <g id="logo-dark" transform="translate(120.000000, 30.000000)">
                <path d="M24.4460733,2.63814815 L21.5141361,2.63814815 C20.0643591,2.63236883 18.8921466,1.45292071 18.8921466,0 L33.1120419,0 C33.1120419,0.700044178 32.8344069,1.37138574 32.3402717,1.86619486 C31.8461365,2.36100399 31.1760217,2.63870506 30.4774869,2.63814815 L27.5581152,2.63814815 L27.5581152,16.7901235 L24.4460733,16.7901235 L24.4460733,2.63814815 Z" id="Path" fill="#002966"></path>
                <path d="M43.9078534,11.3480247 L33.8764398,11.3480247 C34.2366492,13.2201235 35.7926702,14.4185185 38.0188482,14.4185185 C39.4554974,14.4185185 40.5801047,13.9630864 41.4890052,13.027037 L43.0931937,14.8739506 C41.9455497,16.2423457 40.1486911,16.9622222 37.947644,16.9622222 C33.660733,16.9622222 30.8837696,14.2023457 30.8837696,10.3888889 C30.8837696,6.5754321 33.6858639,3.83864198 37.486911,3.83864198 C41.2230366,3.83864198 43.9518325,6.4537037 43.9518325,10.4602469 C43.9560209,10.7037037 43.9308901,11.0604938 43.9078534,11.3480247 Z M33.8554974,9.3562963 L41.1099476,9.3562963 C40.8691099,7.50938272 39.4575916,6.23753086 37.4931937,6.23753086 C35.5287958,6.23753086 34.1361257,7.4862963 33.8534031,9.3562963 L33.8554974,9.3562963 Z" id="Shape" fill="#002966"></path>
                <path d="M53.2670157,3.83864198 L53.2670157,6.69296296 C53.0386452,6.64777903 52.8065894,6.62389099 52.573822,6.62160494 C50.2994764,6.62160494 48.8628272,7.96481481 48.8628272,10.5798765 L48.8628272,16.7901235 L45.8638743,16.7901235 L45.8638743,3.98765432 L48.7120419,3.98765432 L48.7120419,5.85765432 C49.5811518,4.51024691 51.1371728,3.83864198 53.2670157,3.83864198 Z" id="Path" fill="#002966"></path>
                <path d="M62.3643979,3.83864198 L62.3643979,6.69296296 C62.1353297,6.6477216 61.9025735,6.62383362 61.6691099,6.62160494 C59.3947644,6.62160494 57.9581152,7.96481481 57.9581152,10.5798765 L57.9581152,16.7901235 L54.965445,16.7901235 L54.965445,3.98765432 L57.8157068,3.98765432 L57.8157068,5.85765432 C58.6764398,4.51024691 60.2324607,3.83864198 62.3643979,3.83864198 Z" id="Path" fill="#002966"></path>
                <path d="M74.7643979,9.28493827 L74.7643979,16.7901235 L71.939267,16.7901235 L71.939267,15.2349383 C71.2209424,16.3388889 69.8324607,16.9622222 67.9162304,16.9622222 C64.9968586,16.9622222 63.1539267,15.3545679 63.1539267,13.1235802 C63.1539267,10.987037 64.5884817,9.30802469 68.4670157,9.30802469 L71.7717277,9.30802469 L71.7717277,9.11703704 C71.7717277,7.3645679 70.7246073,6.33407407 68.5863874,6.33407407 C67.1518325,6.33407407 65.6670157,6.81469136 64.7099476,7.60592593 L63.5350785,5.42111111 C64.9005236,4.3717284 66.8858639,3.83864198 68.9465969,3.83864198 C72.6324607,3.83864198 74.7643979,5.59111111 74.7643979,9.28493827 Z M71.7717277,12.7877778 L71.7717277,11.2997531 L68.6910995,11.2997531 C66.6554974,11.2997531 66.1068063,12.0679012 66.1068063,13.0039506 C66.1068063,14.082716 67.0157068,14.7795062 68.5486911,14.7795062 C70,14.7795062 71.2691099,14.1079012 71.7717277,12.7877778 Z" id="Shape" fill="#002966"></path>
                <path d="M78.7853403,1.5362963 L74.4272251,1.5362963 C74.0208447,1.53629668 73.6311391,1.3743704 73.3439813,1.08619847 C73.0568234,0.798026538 72.8957792,0.407257998 72.8963336,7.10542736e-15 L86.4460733,7.10542736e-15 C86.4460733,0.848473016 85.7597329,1.5362963 84.913089,1.5362963 L80.5570681,1.5362963 L80.5570681,16.7901235 L78.7853403,16.7901235 L78.7853403,1.5362963 Z" id="Path" fill="#002966"></path>
                <path d="M92.860733,4.07790123 L92.860733,5.73382716 C92.7162304,5.73382716 92.573822,5.71074074 92.4544503,5.71074074 C89.8198953,5.71074074 88.2157068,7.38975309 88.2157068,10.3637037 L88.2157068,16.7901235 L86.5172775,16.7901235 L86.5172775,4.17444444 L88.1445026,4.17444444 L88.1445026,6.64469136 C88.9340314,4.96567901 90.5382199,4.07790123 92.860733,4.07790123 Z" id="Path" fill="#002966"></path>
                <path d="M106.027225,4.17444444 L106.027225,16.7901235 L104.397906,16.7901235 L104.397906,14.4814815 C103.512042,16.015679 101.884817,16.9034568 99.8743455,16.9034568 C96.6659686,16.9034568 94.5591623,15.1048148 94.5591623,11.4823457 L94.5591623,4.17444444 L96.2596859,4.17444444 L96.2596859,11.3333333 C96.2596859,14.0197531 97.6481675,15.3860494 100.041885,15.3860494 C102.674346,15.3860494 104.326702,13.6839506 104.326702,10.8044444 L104.326702,4.17444444 L106.027225,4.17444444 Z" id="Path" fill="#002966"></path>
                <path d="M119.838743,11.0122222 L109.304712,11.0122222 C109.497382,13.6503704 111.507853,15.4028395 114.26178,15.4028395 C115.79267,15.4028395 117.158115,14.8508642 118.115183,13.7469136 L119.072251,14.8508642 C117.947644,16.1940741 116.201047,16.9139506 114.213613,16.9139506 C110.286911,16.9139506 107.606283,14.2275309 107.606283,10.4833333 C107.606283,6.7391358 110.215707,4.07790123 113.757068,4.07790123 C117.298429,4.07790123 119.86178,6.69296296 119.86178,10.4938272 C119.86178,10.6281481 119.838743,10.8212346 119.838743,11.0122222 Z M109.304712,9.74037037 L118.234555,9.74037037 C118.025131,7.27012346 116.224084,5.54283951 113.757068,5.54283951 C111.290052,5.54283951 109.528796,7.27012346 109.304712,9.74037037 L109.304712,9.74037037 Z" id="Shape" fill="#002966"></path>
                <path d="M17.4743455,16.8362963 L13.5895288,10.0866667 C13.1182564,9.22765922 13.1430397,8.18131051 13.6544503,7.34567901 C13.6544503,7.34567901 15.4282723,4.73271605 15.721466,3.53851852 C15.8486308,3.14534915 15.7290911,2.71407617 15.417801,2.44296296 L2.91099476,15.6651852 C2.91099476,15.6651852 3.81570681,16.6033333 5.21465969,15.4238272 C5.21465969,15.4238272 8.7539267,12.5925926 10.4335079,13.3880247 L17.4743455,16.8362963 Z" id="Path" fill="url(#linearGradient-1)"></path>
                <path d="M0,0.190987654 L3.78219895,7.11691358 C4.25475404,7.97717744 4.23238965,9.02497121 3.72356021,9.86419753 C3.72356021,9.86419753 1.95183246,12.4750617 1.66282723,13.6692593 C1.53994555,14.0646065 1.6605389,14.4954054 1.97068063,14.7690123 L14.4774869,1.54679012 C14.4774869,1.54679012 13.5664921,0.60654321 12.1570681,1.78185185 C12.1570681,1.78185185 8.61361257,4.61308642 6.92146597,3.80925926 L0,0.190987654 Z" id="Path" fill="url(#linearGradient-2)"></path>
                <path d="M24.4460733,2.63814815 L21.5141361,2.63814815 C20.0643591,2.63236883 18.8921466,1.45292071 18.8921466,0 L33.1120419,0 C33.1120419,0.700044178 32.8344069,1.37138574 32.3402717,1.86619486 C31.8461365,2.36100399 31.1760217,2.63870506 30.4774869,2.63814815 L27.5581152,2.63814815 L27.5581152,16.7901235 L24.4460733,16.7901235 L24.4460733,2.63814815 Z" id="Path" fill="#002966"></path>
                <path d="M43.9078534,11.3480247 L33.8764398,11.3480247 C34.2366492,13.2201235 35.7926702,14.4185185 38.0188482,14.4185185 C39.4554974,14.4185185 40.5801047,13.9630864 41.4890052,13.027037 L43.0931937,14.8739506 C41.9455497,16.2423457 40.1486911,16.9622222 37.947644,16.9622222 C33.660733,16.9622222 30.8837696,14.2023457 30.8837696,10.3888889 C30.8837696,6.5754321 33.6858639,3.83864198 37.486911,3.83864198 C41.2230366,3.83864198 43.9518325,6.4537037 43.9518325,10.4602469 C43.9560209,10.7037037 43.9308901,11.0604938 43.9078534,11.3480247 Z M33.8554974,9.3562963 L41.1099476,9.3562963 C40.8691099,7.50938272 39.4575916,6.23753086 37.4931937,6.23753086 C35.5287958,6.23753086 34.1361257,7.4862963 33.8534031,9.3562963 L33.8554974,9.3562963 Z" id="Shape" fill="#002966"></path>
                <path d="M53.2670157,3.83864198 L53.2670157,6.69296296 C53.0386452,6.64777903 52.8065894,6.62389099 52.573822,6.62160494 C50.2994764,6.62160494 48.8628272,7.96481481 48.8628272,10.5798765 L48.8628272,16.7901235 L45.8638743,16.7901235 L45.8638743,3.98765432 L48.7120419,3.98765432 L48.7120419,5.85765432 C49.5811518,4.51024691 51.1371728,3.83864198 53.2670157,3.83864198 Z" id="Path" fill="#002966"></path>
                <path d="M62.3643979,3.83864198 L62.3643979,6.69296296 C62.1353297,6.6477216 61.9025735,6.62383362 61.6691099,6.62160494 C59.3947644,6.62160494 57.9581152,7.96481481 57.9581152,10.5798765 L57.9581152,16.7901235 L54.965445,16.7901235 L54.965445,3.98765432 L57.8157068,3.98765432 L57.8157068,5.85765432 C58.6764398,4.51024691 60.2324607,3.83864198 62.3643979,3.83864198 Z" id="Path" fill="#002966"></path>
                <path d="M74.7643979,9.28493827 L74.7643979,16.7901235 L71.939267,16.7901235 L71.939267,15.2349383 C71.2209424,16.3388889 69.8324607,16.9622222 67.9162304,16.9622222 C64.9968586,16.9622222 63.1539267,15.3545679 63.1539267,13.1235802 C63.1539267,10.987037 64.5884817,9.30802469 68.4670157,9.30802469 L71.7717277,9.30802469 L71.7717277,9.11703704 C71.7717277,7.3645679 70.7246073,6.33407407 68.5863874,6.33407407 C67.1518325,6.33407407 65.6670157,6.81469136 64.7099476,7.60592593 L63.5350785,5.42111111 C64.9005236,4.3717284 66.8858639,3.83864198 68.9465969,3.83864198 C72.6324607,3.83864198 74.7643979,5.59111111 74.7643979,9.28493827 Z M71.7717277,12.7877778 L71.7717277,11.2997531 L68.6910995,11.2997531 C66.6554974,11.2997531 66.1068063,12.0679012 66.1068063,13.0039506 C66.1068063,14.082716 67.0157068,14.7795062 68.5486911,14.7795062 C70,14.7795062 71.2691099,14.1079012 71.7717277,12.7877778 Z" id="Shape" fill="#002966"></path>
                <path d="M78.7853403,1.5362963 L74.4272251,1.5362963 C74.0208447,1.53629668 73.6311391,1.3743704 73.3439813,1.08619847 C73.0568234,0.798026538 72.8957792,0.407257998 72.8963336,7.10542736e-15 L86.4460733,7.10542736e-15 C86.4460733,0.848473016 85.7597329,1.5362963 84.913089,1.5362963 L80.5570681,1.5362963 L80.5570681,16.7901235 L78.7853403,16.7901235 L78.7853403,1.5362963 Z" id="Path" fill="#002966"></path>
                <path d="M92.860733,4.07790123 L92.860733,5.73382716 C92.7162304,5.73382716 92.573822,5.71074074 92.4544503,5.71074074 C89.8198953,5.71074074 88.2157068,7.38975309 88.2157068,10.3637037 L88.2157068,16.7901235 L86.5172775,16.7901235 L86.5172775,4.17444444 L88.1445026,4.17444444 L88.1445026,6.64469136 C88.9340314,4.96567901 90.5382199,4.07790123 92.860733,4.07790123 Z" id="Path" fill="#002966"></path>
                <path d="M106.027225,4.17444444 L106.027225,16.7901235 L104.397906,16.7901235 L104.397906,14.4814815 C103.512042,16.015679 101.884817,16.9034568 99.8743455,16.9034568 C96.6659686,16.9034568 94.5591623,15.1048148 94.5591623,11.4823457 L94.5591623,4.17444444 L96.2596859,4.17444444 L96.2596859,11.3333333 C96.2596859,14.0197531 97.6481675,15.3860494 100.041885,15.3860494 C102.674346,15.3860494 104.326702,13.6839506 104.326702,10.8044444 L104.326702,4.17444444 L106.027225,4.17444444 Z" id="Path" fill="#002966"></path>
                <path d="M119.838743,11.0122222 L109.304712,11.0122222 C109.497382,13.6503704 111.507853,15.4028395 114.26178,15.4028395 C115.79267,15.4028395 117.158115,14.8508642 118.115183,13.7469136 L119.072251,14.8508642 C117.947644,16.1940741 116.201047,16.9139506 114.213613,16.9139506 C110.286911,16.9139506 107.606283,14.2275309 107.606283,10.4833333 C107.606283,6.7391358 110.215707,4.07790123 113.757068,4.07790123 C117.298429,4.07790123 119.86178,6.69296296 119.86178,10.4938272 C119.86178,10.6281481 119.838743,10.8212346 119.838743,11.0122222 Z M109.304712,9.74037037 L118.234555,9.74037037 C118.025131,7.27012346 116.224084,5.54283951 113.757068,5.54283951 C111.290052,5.54283951 109.528796,7.27012346 109.304712,9.74037037 L109.304712,9.74037037 Z" id="Shape" fill="#002966"></path>
                <path d="M17.4743455,16.8362963 L13.5895288,10.0866667 C13.1182564,9.22765922 13.1430397,8.18131051 13.6544503,7.34567901 C13.6544503,7.34567901 15.4282723,4.73271605 15.721466,3.53851852 C15.8486308,3.14534915 15.7290911,2.71407617 15.417801,2.44296296 L2.91099476,15.6651852 C2.91099476,15.6651852 3.81570681,16.6033333 5.21465969,15.4238272 C5.21465969,15.4238272 8.7539267,12.5925926 10.4335079,13.3880247 L17.4743455,16.8362963 Z" id="Path" fill="url(#linearGradient-3)"></path>
            </g>
        </g>
    </g>
</svg>