<?xml version="1.0" encoding="UTF-8"?>
<svg width="120px" height="17px" viewBox="0 0 120 17" version="1.1" xmlns="http://www.w3.org/2000/svg" xmlns:xlink="http://www.w3.org/1999/xlink">
    <!-- Generator: Sketch 58 (84663) - https://sketch.com -->
    <title>logo-white</title>
    <desc>Created with Sketch.</desc>
    <defs>
        <linearGradient x1="98.6391183%" y1="100.135486%" x2="39.8993437%" y2="42.8486396%" id="linearGradient-1">
            <stop stop-color="#01D5FE" offset="0%"></stop>
            <stop stop-color="#01C7F9" offset="12%"></stop>
            <stop stop-color="#01A0EC" offset="34%"></stop>
            <stop stop-color="#0064D6" offset="63%"></stop>
            <stop stop-color="#0054D1" offset="71%"></stop>
            <stop stop-color="#005FD5" offset="79%"></stop>
            <stop stop-color="#007DE0" offset="93%"></stop>
            <stop stop-color="#008CE5" offset="99%"></stop>
        </linearGradient>
        <linearGradient x1="55.5957784%" y1="53.5049905%" x2="-0.464338885%" y2="-0.157547954%" id="linearGradient-2">
            <stop stop-color="#9B83E5" offset="4%"></stop>
            <stop stop-color="#8D7AE4" offset="6%"></stop>
            <stop stop-color="#6B64E0" offset="14%"></stop>
            <stop stop-color="#5153DE" offset="21%"></stop>
            <stop stop-color="#4249DD" offset="28%"></stop>
            <stop stop-color="#3D46DC" offset="33%"></stop>
            <stop stop-color="#4149DC" offset="50%"></stop>
            <stop stop-color="#4E51DE" offset="67%"></stop>
            <stop stop-color="#625EE0" offset="85%"></stop>
            <stop stop-color="#7A6EE2" offset="100%"></stop>
        </linearGradient>
        <linearGradient x1="98.6391183%" y1="100.135486%" x2="39.8993437%" y2="42.8486396%" id="linearGradient-3">
            <stop stop-color="#01D5FE" offset="0%"></stop>
            <stop stop-color="#01C7F9" offset="12%"></stop>
            <stop stop-color="#01A0EC" offset="34%"></stop>
            <stop stop-color="#0064D6" offset="63%"></stop>
            <stop stop-color="#0054D1" offset="71%"></stop>
            <stop stop-color="#005FD5" offset="75%"></stop>
            <stop stop-color="#007DE0" offset="83%"></stop>
            <stop stop-color="#008CE5" offset="86%"></stop>
            <stop stop-color="#01D3FD" offset="100%"></stop>
        </linearGradient>
    </defs>
    <g id="Homepage" stroke="none" stroke-width="1" fill="none" fill-rule="evenodd">
        <g transform="translate(-120.000000, -30.000000)" fill-rule="nonzero" id="logo-white">
            <g transform="translate(120.000000, 30.000000)">
                <path d="M24.1855077,2.671125 L21.1965089,2.671125 C19.7185162,2.66527344 18.5234899,1.47108222 18.5234899,0 L33.0201342,0 C33.0201342,0.70879473 32.7370959,1.38852806 32.2333438,1.8895223 C31.7295917,2.39051654 31.046435,2.67168888 30.3343053,2.671125 L27.3581165,2.671125 L27.3581165,17 L24.1855077,17 L24.1855077,2.671125 Z" id="Path" fill="#FFFFFF"></path>
                <path d="M43.4461139,11.4590406 L33.5548779,11.4590406 C33.9100538,13.3067175 35.4443311,14.4894793 37.6394008,14.4894793 C39.0559745,14.4894793 40.1648667,14.0399884 41.0610664,13.11615 L42.6428382,14.9389702 C41.5112312,16.2895144 39.7394816,17 37.5691916,17 C33.3421853,17 30.6040268,14.2761265 30.6040268,10.5124169 C30.6040268,6.74870729 33.366965,4.04761905 37.1148968,4.04761905 C40.7988144,4.04761905 43.4894784,6.62856686 43.4894784,10.582844 C43.4936084,10.8231249 43.4688286,11.1752606 43.4461139,11.4590406 Z M33.5342281,9.49329465 L40.6873057,9.49329465 C40.4498334,7.67047436 39.0580395,6.41521403 37.1210918,6.41521403 C35.1841441,6.41521403 33.8109349,7.64768911 33.5321631,9.49329465 L33.5342281,9.49329465 Z" id="Shape" fill="#FFFFFF"></path>
                <path d="M53.1543624,4.04761905 L53.1543624,6.90213827 C52.9307678,6.8569512 52.7035648,6.83306149 52.4756652,6.83077529 C50.2488822,6.83077529 48.8422771,8.17407845 48.8422771,10.7893218 L48.8422771,17 L45.9060403,17 L45.9060403,4.19664174 L48.6946451,4.19664174 L48.6946451,6.06677161 C49.5455797,4.71927063 51.0690601,4.04761905 53.1543624,4.04761905 Z" id="Path" fill="#FFFFFF"></path>
                <path d="M62.0134228,4.04761905 L62.0134228,6.90213827 C61.7890181,6.85689376 61.5610005,6.83300413 61.3322898,6.83077529 C59.1042463,6.83077529 57.6968449,8.17407845 57.6968449,10.7893218 L57.6968449,17 L54.7651007,17 L54.7651007,4.19664174 L57.5573357,4.19664174 L57.5573357,6.06677161 C58.4005456,4.71927063 59.9248884,4.04761905 62.0134228,4.04761905 Z" id="Path" fill="#FFFFFF"></path>
                <path d="M74.8993289,9.4228675 L74.8993289,16.8301463 L72.155786,16.8301463 L72.155786,15.2952488 C71.4582062,16.3847982 70.1098231,17 68.2489323,17 C65.4138702,17 63.6241611,15.4133178 63.6241611,13.2114337 C63.6241611,11.1027621 65.017287,9.44565275 68.7838113,9.44565275 L71.9930852,9.44565275 L71.9930852,9.25715656 C71.9930852,7.52754868 70.976205,6.51049782 68.8997356,6.51049782 C67.5066097,6.51049782 66.0646736,6.98484537 65.1352451,7.76575815 L63.9943055,5.60944461 C65.3203173,4.57375127 67.2483221,4.04761905 69.2495424,4.04761905 C72.8289607,4.04761905 74.8993289,5.77722693 74.8993289,9.4228675 Z M71.9930852,12.8800119 L71.9930852,11.4113987 L69.0014236,11.4113987 C67.0246085,11.4113987 66.4917633,12.1695262 66.4917633,13.0933647 C66.4917633,14.1580575 67.3744153,14.8457578 68.8631279,14.8457578 C70.2725239,14.8457578 71.5049827,14.1829141 71.9930852,12.8800119 Z" id="Shape" fill="#FFFFFF"></path>
                <path d="M78.4337425,1.5555 L74.0301041,1.5555 C73.6194788,1.55550039 73.2257025,1.39155003 72.9355451,1.09977595 C72.6453877,0.80800187 72.4826612,0.412348723 72.4832215,0 L86.1744966,0 C86.1744966,0.859078928 85.4809869,1.5555 84.6254994,1.5555 L80.2239771,1.5555 L80.2239771,17 L78.4337425,17 L78.4337425,1.5555 Z" id="Path" fill="#FFFFFF"></path>
                <path d="M92.6174497,4.04761905 L92.6174497,5.73482865 C92.4706805,5.73482865 92.3260385,5.71130608 92.2047944,5.71130608 C89.5289162,5.71130608 87.8995659,7.42203826 87.8995659,10.4521726 L87.8995659,17 L86.1744966,17 L86.1744966,4.14598615 L87.8272449,4.14598615 L87.8272449,6.66290085 C88.6291575,4.95216868 90.2585078,4.04761905 92.6174497,4.04761905 Z" id="Path" fill="#FFFFFF"></path>
                <path d="M106.308725,4.04761905 L106.308725,16.8846779 L104.706811,16.8846779 L104.706811,14.5355239 C103.835847,16.0966435 102.235993,17 100.259338,17 C97.1049264,17 95.033557,15.1697955 95.033557,11.4837593 L95.033557,4.04761905 L96.7054775,4.04761905 L96.7054775,11.3321321 C96.7054775,14.0656931 98.0706046,15.4559651 100.424059,15.4559651 C103.012241,15.4559651 104.636804,13.723998 104.636804,10.7939622 L104.636804,4.04761905 L106.308725,4.04761905 Z" id="Path" fill="#FFFFFF"></path>
                <path d="M119.977292,11.044785 L109.593645,11.044785 C109.783565,13.7068423 111.765335,15.4751939 114.479946,15.4751939 C115.988981,15.4751939 117.334933,14.9182161 118.278338,13.8042605 L119.221743,14.9182161 C118.11319,16.2735993 116.391528,17 114.432466,17 C110.561822,17 107.919463,14.2892335 107.919463,10.5111028 C107.919463,6.73297206 110.491635,4.04761905 113.982439,4.04761905 C117.473244,4.04761905 120,6.68638077 120,10.5216917 C120,10.6572301 119.977292,10.8520664 119.977292,11.044785 Z M109.593645,9.76140646 L118.396005,9.76140646 C118.189571,7.268772 116.414236,5.52583388 113.982439,5.52583388 C111.550643,5.52583388 109.81453,7.268772 109.593645,9.76140646 L109.593645,9.76140646 Z" id="Shape" fill="#FFFFFF"></path>
                <path d="M17.7181208,17 L13.8510982,10.1668541 C13.3819845,9.29721781 13.4066542,8.23792215 13.9157223,7.39195101 C13.9157223,7.39195101 15.6814194,4.74665667 15.9732702,3.53768279 C16.0998526,3.13964856 15.9808603,2.70303925 15.6709962,2.42857143 L3.22147651,15.8143982 C3.22147651,15.8143982 4.12204458,16.7641545 5.51458964,15.5700537 C5.51458964,15.5700537 9.03764527,12.703787 10.7095332,13.5090614 L17.7181208,17 Z" id="Path" fill="url(#linearGradient-1)"></path>
                <path d="M0,0 L3.78720376,6.92279215 C4.26038415,7.78266677 4.23799018,8.82998644 3.72848742,9.66883304 C3.72848742,9.66883304 1.95441523,12.2785159 1.66502757,13.4721731 C1.54198329,13.8673415 1.66273621,14.2979455 1.97328834,14.5714286 L14.4966443,1.35518901 C14.4966443,1.35518901 13.5844441,0.415367529 12.1731549,1.59014438 C12.1731549,1.59014438 8.62501056,4.4200979 6.93062482,3.61663445 L0,0 Z" id="Path" fill="url(#linearGradient-2)"></path>
                <path d="M24.1855077,2.671125 L21.1965089,2.671125 C19.7185162,2.66527344 18.5234899,1.47108222 18.5234899,0 L33.0201342,0 C33.0201342,0.70879473 32.7370959,1.38852806 32.2333438,1.8895223 C31.7295917,2.39051654 31.046435,2.67168888 30.3343053,2.671125 L27.3581165,2.671125 L27.3581165,17 L24.1855077,17 L24.1855077,2.671125 Z" id="Path" fill="#FFFFFF"></path>
                <path d="M43.4461139,11.4590406 L33.5548779,11.4590406 C33.9100538,13.3067175 35.4443311,14.4894793 37.6394008,14.4894793 C39.0559745,14.4894793 40.1648667,14.0399884 41.0610664,13.11615 L42.6428382,14.9389702 C41.5112312,16.2895144 39.7394816,17 37.5691916,17 C33.3421853,17 30.6040268,14.2761265 30.6040268,10.5124169 C30.6040268,6.74870729 33.366965,4.04761905 37.1148968,4.04761905 C40.7988144,4.04761905 43.4894784,6.62856686 43.4894784,10.582844 C43.4936084,10.8231249 43.4688286,11.1752606 43.4461139,11.4590406 Z M33.5342281,9.49329465 L40.6873057,9.49329465 C40.4498334,7.67047436 39.0580395,6.41521403 37.1210918,6.41521403 C35.1841441,6.41521403 33.8109349,7.64768911 33.5321631,9.49329465 L33.5342281,9.49329465 Z" id="Shape" fill="#FFFFFF"></path>
                <path d="M53.1543624,4.04761905 L53.1543624,6.90213827 C52.9307678,6.8569512 52.7035648,6.83306149 52.4756652,6.83077529 C50.2488822,6.83077529 48.8422771,8.17407845 48.8422771,10.7893218 L48.8422771,17 L45.9060403,17 L45.9060403,4.19664174 L48.6946451,4.19664174 L48.6946451,6.06677161 C49.5455797,4.71927063 51.0690601,4.04761905 53.1543624,4.04761905 Z" id="Path" fill="#FFFFFF"></path>
                <path d="M62.0134228,4.04761905 L62.0134228,6.90213827 C61.7890181,6.85689376 61.5610005,6.83300413 61.3322898,6.83077529 C59.1042463,6.83077529 57.6968449,8.17407845 57.6968449,10.7893218 L57.6968449,17 L54.7651007,17 L54.7651007,4.19664174 L57.5573357,4.19664174 L57.5573357,6.06677161 C58.4005456,4.71927063 59.9248884,4.04761905 62.0134228,4.04761905 Z" id="Path" fill="#FFFFFF"></path>
                <path d="M74.8993289,9.4228675 L74.8993289,16.8301463 L72.155786,16.8301463 L72.155786,15.2952488 C71.4582062,16.3847982 70.1098231,17 68.2489323,17 C65.4138702,17 63.6241611,15.4133178 63.6241611,13.2114337 C63.6241611,11.1027621 65.017287,9.44565275 68.7838113,9.44565275 L71.9930852,9.44565275 L71.9930852,9.25715656 C71.9930852,7.52754868 70.976205,6.51049782 68.8997356,6.51049782 C67.5066097,6.51049782 66.0646736,6.98484537 65.1352451,7.76575815 L63.9943055,5.60944461 C65.3203173,4.57375127 67.2483221,4.04761905 69.2495424,4.04761905 C72.8289607,4.04761905 74.8993289,5.77722693 74.8993289,9.4228675 Z M71.9930852,12.8800119 L71.9930852,11.4113987 L69.0014236,11.4113987 C67.0246085,11.4113987 66.4917633,12.1695262 66.4917633,13.0933647 C66.4917633,14.1580575 67.3744153,14.8457578 68.8631279,14.8457578 C70.2725239,14.8457578 71.5049827,14.1829141 71.9930852,12.8800119 Z" id="Shape" fill="#FFFFFF"></path>
                <path d="M78.4337425,1.5555 L74.0301041,1.5555 C73.6194788,1.55550039 73.2257025,1.39155003 72.9355451,1.09977595 C72.6453877,0.80800187 72.4826612,0.412348723 72.4832215,0 L86.1744966,0 C86.1744966,0.859078928 85.4809869,1.5555 84.6254994,1.5555 L80.2239771,1.5555 L80.2239771,17 L78.4337425,17 L78.4337425,1.5555 Z" id="Path" fill="#FFFFFF"></path>
                <path d="M92.6174497,4.04761905 L92.6174497,5.73482865 C92.4706805,5.73482865 92.3260385,5.71130608 92.2047944,5.71130608 C89.5289162,5.71130608 87.8995659,7.42203826 87.8995659,10.4521726 L87.8995659,17 L86.1744966,17 L86.1744966,4.14598615 L87.8272449,4.14598615 L87.8272449,6.66290085 C88.6291575,4.95216868 90.2585078,4.04761905 92.6174497,4.04761905 Z" id="Path" fill="#FFFFFF"></path>
                <path d="M106.308725,4.04761905 L106.308725,16.8846779 L104.706811,16.8846779 L104.706811,14.5355239 C103.835847,16.0966435 102.235993,17 100.259338,17 C97.1049264,17 95.033557,15.1697955 95.033557,11.4837593 L95.033557,4.04761905 L96.7054775,4.04761905 L96.7054775,11.3321321 C96.7054775,14.0656931 98.0706046,15.4559651 100.424059,15.4559651 C103.012241,15.4559651 104.636804,13.723998 104.636804,10.7939622 L104.636804,4.04761905 L106.308725,4.04761905 Z" id="Path" fill="#FFFFFF"></path>
                <path d="M119.977292,11.044785 L109.593645,11.044785 C109.783565,13.7068423 111.765335,15.4751939 114.479946,15.4751939 C115.988981,15.4751939 117.334933,14.9182161 118.278338,13.8042605 L119.221743,14.9182161 C118.11319,16.2735993 116.391528,17 114.432466,17 C110.561822,17 107.919463,14.2892335 107.919463,10.5111028 C107.919463,6.73297206 110.491635,4.04761905 113.982439,4.04761905 C117.473244,4.04761905 120,6.68638077 120,10.5216917 C120,10.6572301 119.977292,10.8520664 119.977292,11.044785 Z M109.593645,9.76140646 L118.396005,9.76140646 C118.189571,7.268772 116.414236,5.52583388 113.982439,5.52583388 C111.550643,5.52583388 109.81453,7.268772 109.593645,9.76140646 L109.593645,9.76140646 Z" id="Shape" fill="#FFFFFF"></path>
                <path d="M17.7181208,17 L13.8510982,10.1668541 C13.3819845,9.29721781 13.4066542,8.23792215 13.9157223,7.39195101 C13.9157223,7.39195101 15.6814194,4.74665667 15.9732702,3.53768279 C16.0998526,3.13964856 15.9808603,2.70303925 15.6709962,2.42857143 L3.22147651,15.8143982 C3.22147651,15.8143982 4.12204458,16.7641545 5.51458964,15.5700537 C5.51458964,15.5700537 9.03764527,12.703787 10.7095332,13.5090614 L17.7181208,17 Z" id="Path" fill="url(#linearGradient-3)"></path>
                <path d="M0,0 L3.78720376,6.92279215 C4.26038415,7.78266677 4.23799018,8.82998644 3.72848742,9.66883304 C3.72848742,9.66883304 1.95441523,12.2785159 1.66502757,13.4721731 C1.54198329,13.8673415 1.66273621,14.2979455 1.97328834,14.5714286 L14.4966443,1.35518901 C14.4966443,1.35518901 13.5844441,0.415367529 12.1731549,1.59014438 C12.1731549,1.59014438 8.62501056,4.4200979 6.93062482,3.61663445 L0,0 Z" id="Path" fill="url(#linearGradient-2)"></path>
            </g>
        </g>
    </g>
</svg>