<?xml version="1.0" encoding="UTF-8"?>
<svg width="88px" height="188px" viewBox="0 0 88 188" version="1.1" xmlns="http://www.w3.org/2000/svg" xmlns:xlink="http://www.w3.org/1999/xlink">
    <!-- Generator: Sketch 58 (84663) - https://sketch.com -->
    <title>Group 41</title>
    <desc>Created with Sketch.</desc>
    <defs>
        <path d="M0.90298562,4.329 C0.899,5.361 1.73,6.202 2.763,6.206 L2.763,6.206 L24.703,6.31701438 C25.735,6.321 26.575,5.49 26.581,4.457 L26.581,4.457 L26.602,0.388 L0.924,0.258 L0.90298562,4.329 Z" id="path-1"></path>
        <linearGradient x1="49.9988945%" y1="52.778904%" x2="49.9997194%" y2="47.22163%" id="linearGradient-3">
            <stop stop-color="#A1CAFF" offset="0%"></stop>
            <stop stop-color="#FFFFFF" offset="100%"></stop>
        </linearGradient>
        <path d="M0.283,37.084 L21.669,56.572 C22.333,57.193 23.417,56.871 23.635,55.989 L23.635,55.989 L30.3,28.918 C30.999,26.078 30.427,23.077 28.733,20.693 L28.733,20.693 L14.612,0.83 L0.283,37.084 Z" id="path-4"></path>
        <path d="M1.897,20.418 C0.657,22.138 0.006,24.187 0,26.267 L0,26.267 L0,26.314 C0.001,27.088 0.092,27.865 0.275,28.632 L0.275,28.632 L6.759,55.748 C6.971,56.63 8.054,56.959 8.721,56.343 L8.721,56.343 L30.236,37.001 L16.151,0.65 L1.897,20.418 Z" id="path-6"></path>
        <path d="M28.232,0.715 C3.955,20.484 -9.496,82.999 10.033,112.714 L10.033,112.714 C10.637,113.633 11.563,114.186 12.553,114.192 L12.553,114.192 L42.864,114.352049 C43.854,114.358 44.784,113.815 45.397,112.902 L45.397,112.902 C65.208,83.396 52.317,20.741 28.232,0.715 Z" id="path-8"></path>
        <linearGradient x1="36.3748486%" y1="28.489167%" x2="63.7186108%" y2="85.5746197%" id="linearGradient-10">
            <stop stop-color="#FFFFFF" offset="0%"></stop>
            <stop stop-color="#A1CAFF" offset="100%"></stop>
        </linearGradient>
        <path d="M22.232,0.715 C13.483,7.839 6.16,20.528 1.264,35.221 L1.264,35.221 C7.307,35.112 42.901,35.505 42.901,35.505 L42.901,35.505 C38.139,20.734 30.924,7.942 22.232,0.715 Z M1.226,35.333 C1.239,35.296 1.251,35.258 1.264,35.221 L1.264,35.221 C0.183,35.24 0.045,35.276 1.226,35.333 L1.226,35.333 Z" id="path-11"></path>
        <path d="M3.708,6.632 C-0.884,12.835 0.422,21.586 6.625,26.178 L6.625,26.178 C12.828,30.768 21.577,29.463 26.169,23.26 L26.169,23.26 C30.761,17.058 29.454,8.307 23.252,3.716 L23.252,3.716 C20.752,1.865 17.838,0.973 14.949,0.973 L14.949,0.973 C10.672,0.973 6.449,2.931 3.708,6.632" id="path-13"></path>
        <linearGradient x1="14.8246478%" y1="14.46086%" x2="85.176191%" y2="85.5371633%" id="linearGradient-15">
            <stop stop-color="#FD9134" offset="0%"></stop>
            <stop stop-color="#FBC614" offset="100%"></stop>
        </linearGradient>
        <path d="M10.268,0.751 C4.085,1.674 -0.179,7.434 0.744,13.618 L0.744,13.618 C1.667,19.799 7.427,24.064 13.609,23.141 L13.609,23.141 C19.792,22.218 24.056,16.458 23.133,10.276 L23.133,10.276 C22.294,4.659 17.465,0.626 11.952,0.626 L11.952,0.626 C11.397,0.626 10.834,0.667 10.268,0.751" id="path-16"></path>
        <linearGradient x1="14.6494403%" y1="14.6467558%" x2="85.3508247%" y2="85.3543073%" id="linearGradient-18">
            <stop stop-color="#2459CD" offset="0%"></stop>
            <stop stop-color="#0E38C1" offset="100%"></stop>
        </linearGradient>
        <path d="M18.772,1.633 C18.937,3.027 19.234,4.464 18.833,5.807 L18.833,5.807 C18.462,7.051 17.476,8.095 16.254,8.535 L16.254,8.535 C14.505,9.166 12.465,8.593 10.772,9.36 L10.772,9.36 C8.709,10.295 7.83,12.904 5.79,13.887 L5.79,13.887 C4.826,14.352 3.704,14.392 2.646,14.23 L2.646,14.23 C1.898,14.114 1.15,13.882 0.554,13.421 L0.554,13.421 C2.536,18.026 7.417,20.917 12.609,20.141 L12.609,20.141 C18.792,19.218 23.056,13.458 22.133,7.276 L22.133,7.276 C21.743,4.663 20.484,2.401 18.7,0.721 L18.7,0.721 C18.712,1.027 18.737,1.334 18.772,1.633" id="path-19"></path>
        <linearGradient x1="34.233245%" y1="31.3188414%" x2="84.7222918%" y2="76.7888004%" id="linearGradient-21">
            <stop stop-color="#0E38C1" offset="0%"></stop>
            <stop stop-color="#2459CD" offset="100%"></stop>
        </linearGradient>
        <path d="M1.147,14.16 C0.512,17.446 0.219,20.791 0.273,24.138 L0.273,24.138 L0.643,51.205 C0.68,53.382 2.449,55.131 4.625,55.1430521 L4.625,55.1430521 C6.802,55.154 8.588,53.422 8.645,51.247 L8.645,51.247 L9.276,24.183 C9.364,20.837 9.104,17.49 8.502,14.196 L8.502,14.196 L6.044,0.775 L3.74,0.763 L1.147,14.16 Z" id="path-22"></path>
        <linearGradient x1="45.6508039%" y1="24.2932858%" x2="54.3407075%" y2="76.6474723%" id="linearGradient-24">
            <stop stop-color="#FB7200" offset="0%"></stop>
            <stop stop-color="#FDD660" offset="100%"></stop>
        </linearGradient>
    </defs>
    <g id="Homepage" stroke="none" stroke-width="1" fill="none" fill-rule="evenodd">
        <g transform="translate(-1081.000000, -2582.000000)" id="Group-41">
            <g transform="translate(1124.000000, 2676.500000) rotate(-20.000000) translate(-1124.000000, -2676.500000) translate(1081.000000, 2575.000000)">
                <g id="Group-5" transform="translate(27.000000, 116.285000)" fill="#FFFFFF">
                    <path d="M15.9669,0.186 C7.1579,0.186 0.0179,7.327 0.0179,16.135 C0.0179,39.04 15.9669,54.012 15.9669,85 C15.9669,54.012 31.9159,39.04 31.9159,16.135 C31.9159,7.327 24.7759,0.186 15.9669,0.186" id="Fill-1"></path>
                    <path d="M15.9669,0.186 C10.0709,0.186 5.2889,4.967 5.2889,10.864 C5.2889,26.198 15.9669,36.221 15.9669,56.966 C15.9669,36.221 26.6449,26.198 26.6449,10.864 C26.6449,4.967 21.8639,0.186 15.9669,0.186" id="Fill-3"></path>
                </g>
                <g id="Group-8" transform="translate(29.000000, 114.285000)">
                    <mask id="mask-2" fill="white">
                        <use xlink:href="#path-1"></use>
                    </mask>
                    <g id="Clip-7"></g>
                    <path d="M0.90298562,4.329 C0.899,5.361 1.73,6.202 2.763,6.206 L2.763,6.206 L24.703,6.31701438 C25.735,6.321 26.575,5.49 26.581,4.457 L26.581,4.457 L26.602,0.388 L0.924,0.258 L0.90298562,4.329 Z" id="Fill-6" fill="url(#linearGradient-3)" mask="url(#mask-2)"></path>
                </g>
                <g id="Group-11" transform="translate(55.000000, 77.285000)">
                    <mask id="mask-5" fill="white">
                        <use xlink:href="#path-4"></use>
                    </mask>
                    <g id="Clip-10"></g>
                    <path d="M0.283,37.084 L21.669,56.572 C22.333,57.193 23.417,56.871 23.635,55.989 L23.635,55.989 L30.3,28.918 C30.999,26.078 30.427,23.077 28.733,20.693 L28.733,20.693 L14.612,0.83 L0.283,37.084 Z" id="Fill-9" fill="#FFA26B" mask="url(#mask-5)"></path>
                </g>
                <g id="Group-14" transform="translate(0.000000, 77.285000)">
                    <mask id="mask-7" fill="white">
                        <use xlink:href="#path-6"></use>
                    </mask>
                    <g id="Clip-13"></g>
                    <path d="M1.897,20.418 C0.657,22.138 0.006,24.187 0,26.267 L0,26.267 L0,26.314 C0.001,27.088 0.092,27.865 0.275,28.632 L0.275,28.632 L6.759,55.748 C6.971,56.63 8.054,56.959 8.721,56.343 L8.721,56.343 L30.236,37.001 L16.151,0.65 L1.897,20.418 Z" id="Fill-12" fill="#FFA26B" mask="url(#mask-7)"></path>
                </g>
                <g id="Group-17" transform="translate(15.000000, 0.285000)">
                    <mask id="mask-9" fill="white">
                        <use xlink:href="#path-8"></use>
                    </mask>
                    <g id="Clip-16"></g>
                    <path d="M28.232,0.715 C3.955,20.484 -9.496,82.999 10.033,112.714 L10.033,112.714 C10.637,113.633 11.563,114.186 12.553,114.192 L12.553,114.192 L42.864,114.352049 C43.854,114.358 44.784,113.815 45.397,112.902 L45.397,112.902 C65.208,83.396 52.317,20.741 28.232,0.715 Z" id="Fill-15" fill="url(#linearGradient-10)" mask="url(#mask-9)"></path>
                </g>
                <g id="Group-20" transform="translate(21.000000, 0.285000)">
                    <mask id="mask-12" fill="white">
                        <use xlink:href="#path-11"></use>
                    </mask>
                    <g id="Clip-19"></g>
                    <path d="M22.232,0.715 C13.483,7.839 6.16,20.528 1.264,35.221 L1.264,35.221 C7.307,35.112 42.901,35.505 42.901,35.505 L42.901,35.505 C38.139,20.734 30.924,7.942 22.232,0.715 Z M1.226,35.333 C1.239,35.296 1.251,35.258 1.264,35.221 L1.264,35.221 C0.183,35.24 0.045,35.276 1.226,35.333 L1.226,35.333 Z" id="Fill-18" fill="#FFA26B" mask="url(#mask-12)"></path>
                </g>
                <g id="Group-23" transform="translate(28.000000, 46.285000)">
                    <mask id="mask-14" fill="white">
                        <use xlink:href="#path-13"></use>
                    </mask>
                    <g id="Clip-22"></g>
                    <path d="M3.708,6.632 C-0.884,12.835 0.422,21.586 6.625,26.178 L6.625,26.178 C12.828,30.768 21.577,29.463 26.169,23.26 L26.169,23.26 C30.761,17.058 29.454,8.307 23.252,3.716 L23.252,3.716 C20.752,1.865 17.838,0.973 14.949,0.973 L14.949,0.973 C10.672,0.973 6.449,2.931 3.708,6.632" id="Fill-21" fill="url(#linearGradient-15)" mask="url(#mask-14)"></path>
                </g>
                <g id="Group-26" transform="translate(31.000000, 49.285000)">
                    <mask id="mask-17" fill="white">
                        <use xlink:href="#path-16"></use>
                    </mask>
                    <g id="Clip-25"></g>
                    <path d="M10.268,0.751 C4.085,1.674 -0.179,7.434 0.744,13.618 L0.744,13.618 C1.667,19.799 7.427,24.064 13.609,23.141 L13.609,23.141 C19.792,22.218 24.056,16.458 23.133,10.276 L23.133,10.276 C22.294,4.659 17.465,0.626 11.952,0.626 L11.952,0.626 C11.397,0.626 10.834,0.667 10.268,0.751" id="Fill-24" fill="url(#linearGradient-18)" mask="url(#mask-17)"></path>
                </g>
                <g id="Group-29" transform="translate(32.000000, 52.285000)">
                    <mask id="mask-20" fill="white">
                        <use xlink:href="#path-19"></use>
                    </mask>
                    <g id="Clip-28"></g>
                    <path d="M18.772,1.633 C18.937,3.027 19.234,4.464 18.833,5.807 L18.833,5.807 C18.462,7.051 17.476,8.095 16.254,8.535 L16.254,8.535 C14.505,9.166 12.465,8.593 10.772,9.36 L10.772,9.36 C8.709,10.295 7.83,12.904 5.79,13.887 L5.79,13.887 C4.826,14.352 3.704,14.392 2.646,14.23 L2.646,14.23 C1.898,14.114 1.15,13.882 0.554,13.421 L0.554,13.421 C2.536,18.026 7.417,20.917 12.609,20.141 L12.609,20.141 C18.792,19.218 23.056,13.458 22.133,7.276 L22.133,7.276 C21.743,4.663 20.484,2.401 18.7,0.721 L18.7,0.721 C18.712,1.027 18.737,1.334 18.772,1.633" id="Fill-27" fill="url(#linearGradient-21)" mask="url(#mask-20)"></path>
                </g>
                <g id="Group-37" transform="translate(20.000000, 6.285000)" fill="#FFFFFF">
                    <g id="Group-34" transform="translate(14.000000, 45.000000)">
                        <path d="M9.2868,0.5238 C9.0458,0.5258 8.8028,0.5368 8.5588,0.5568 C8.3088,0.5788 8.0798,0.6978 7.9178,0.8898 C7.7568,1.0838 7.6798,1.3278 7.7008,1.5788 C7.7428,2.0678 8.1448,2.4378 8.6348,2.4398 L8.7228,2.4358 C8.9138,2.4198 9.1078,2.4118 9.2978,2.4098 C9.5508,2.4088 9.7868,2.3088 9.9648,2.1298 C10.1418,1.9498 10.2388,1.7128 10.2368,1.4618 C10.2318,0.9478 9.8108,0.5268 9.2868,0.5238 L9.2868,0.5238 Z" id="Fill-30"></path>
                        <path d="M6.1202,1.2094 C5.8882,1.1104 5.6332,1.1094 5.3992,1.2014 C2.9942,2.1674 1.0732,4.1054 0.1292,6.5194 C-0.0578,7.0034 0.1832,7.5514 0.6682,7.7404 C0.7752,7.7824 0.8892,7.80441235 1.0042,7.80441235 C1.3912,7.8064 1.7452,7.5654 1.8872,7.2054 C2.6522,5.2454 4.1492,3.7344 6.1012,2.9524 C6.3362,2.8574 6.5182,2.6794 6.6172,2.4474 C6.7182,2.2164 6.7202,1.9604 6.6262,1.7274 C6.5322,1.4924 6.3522,1.3094 6.1202,1.2094" id="Fill-32"></path>
                    </g>
                    <path d="M5.3751,101.518 C6.0701,103.764 6.8341,105.999 7.6821,108.22 L20.9401,108.22 C20.7101,107.849 20.4801,107.47 20.2521,107.085 C19.6851,106.118 19.1411,105.116 18.6061,104.103 C17.5491,102.068 16.5771,99.962 15.6561,97.827 C13.8551,93.534 12.3361,89.082 11.1261,84.531 C8.7231,75.422 7.4841,65.914 7.5661,56.337 C7.6231,51.554 7.8871,46.739 8.5751,41.961 L8.8041,40.164 L9.1101,38.379 L9.7301,34.801 L10.5091,31.249 L10.8981,29.468 L11.3681,27.708 C13.8131,18.295 17.3191,9.092 21.6971,0.274 C16.4151,8.58 11.9011,17.441 8.3921,26.769 L7.7221,28.516 L7.1311,30.289 L5.9471,33.846 L4.9191,37.455 L4.4081,39.264 L3.9751,41.094 C2.7381,45.962 1.9271,50.943 1.3351,55.963 C0.1831,66.013 0.4011,76.289 1.9581,86.435 C2.7451,91.508 3.8831,96.546 5.3751,101.518" id="Fill-35"></path>
                </g>
                <g id="Group-40" transform="translate(38.000000, 85.285000)">
                    <mask id="mask-23" fill="white">
                        <use xlink:href="#path-22"></use>
                    </mask>
                    <g id="Clip-39"></g>
                    <path d="M1.147,14.16 C0.512,17.446 0.219,20.791 0.273,24.138 L0.273,24.138 L0.643,51.205 C0.68,53.382 2.449,55.131 4.625,55.1430521 L4.625,55.1430521 C6.802,55.154 8.588,53.422 8.645,51.247 L8.645,51.247 L9.276,24.183 C9.364,20.837 9.104,17.49 8.502,14.196 L8.502,14.196 L6.044,0.775 L3.74,0.763 L1.147,14.16 Z" id="Fill-38" fill="url(#linearGradient-24)" mask="url(#mask-23)"></path>
                </g>
            </g>
        </g>
    </g>
</svg>