<?xml version="1.0" encoding="UTF-8"?>
<svg width="50px" height="50px" viewBox="0 0 50 50" version="1.1" xmlns="http://www.w3.org/2000/svg" xmlns:xlink="http://www.w3.org/1999/xlink">
    <!-- Generator: Sketch 58 (84663) - https://sketch.com -->
    <title>Icon/Colored/Consumers</title>
    <desc>Created with Sketch.</desc>
    <g id="Homepage" stroke="none" stroke-width="1" fill="none" fill-rule="evenodd">
        <g transform="translate(-196.000000, -1724.000000)" id="Group-12">
            <g transform="translate(120.000000, 1685.000000)">
                <g id="Icon/Colored/Your-Organization" transform="translate(76.000000, 39.000000)">
                    <g id="Group" fill="#FFFAEE">
                        <rect id="Rectangle-Copy-9" x="0" y="0" width="50" height="50" rx="25"></rect>
                    </g>
                    <g id="building" transform="translate(10.000000, 10.000000)" fill="#FFCF5B">
                        <path d="M21.5000176,28 L7.49998242,28 C7.22400478,28 7,28.2240061 7,28.4999854 L7,29.5000146 C7,29.7759939 7.22400478,30 7.49998242,30 C7.77596006,30 7.99996484,29.7759939 7.99996484,29.5000146 L7.99996484,29.0000293 L21.5000176,29.0000293 C21.7759952,29.0000293 22,28.7760232 22,28.5000439 C22,28.2240647 21.7760538,28 21.5000176,28 Z" id="Path" fill-rule="nonzero"></path>
                        <path d="M11,12.5000146 C11,12.7759939 11.2240039,13 11.4999805,13 L13.5000195,13 C13.7759961,13 14,12.7759939 14,12.5000146 L14,9.49998535 C14,9.22400609 13.7759961,9 13.5000195,9 L11.5000391,9 C11.2240625,9 11.0000586,9.22400609 11.0000586,9.49998535 L11.0000586,12.5000146 L11,12.5000146 Z M12.0000195,10.0000293 L13.0000391,10.0000293 L13.0000391,12.0000293 L12.0000195,12.0000293 L12.0000195,10.0000293 Z" id="Shape" fill-rule="nonzero"></path>
                        <path d="M6.50001674,6 L0.499983259,6 C0.224005156,6 0,6.2240043 0,6.49998136 L0,16.5000186 C0,16.7759957 0.224005156,17 0.499983259,17 C0.775961361,17 0.999966518,16.7759957 0.999966518,16.5000186 L0.999966518,7.00002131 L6.50001674,7.00002131 C6.77599484,7.00002131 7,6.776017 7,6.50003995 C7,6.2240629 6.77605344,6 6.50001674,6 Z" id="Path" fill-rule="nonzero"></path>
                        <path d="M24,24.5000146 C24,24.7759939 24.2240083,25 24.5,25 L26.5,25 C26.7759917,25 27,24.7759939 27,24.5000146 L27,21.4999854 C27,21.2240061 26.7759917,21 26.5,21 L24.5,21 C24.2240083,21 24,21.2240061 24,21.4999854 L24,24.5000146 Z M25.0000391,22.0000293 L26.0000781,22.0000293 L26.0000781,24.0000293 L25.0000391,24.0000293 L25.0000391,22.0000293 Z" id="Shape" fill-rule="nonzero"></path>
                        <path d="M2.50005851,18 C0.0284770065,18 0,24.435 0,24.4999805 C0,25.7074805 0.860521228,26.7169922 2.00001165,26.9494922 L2.00001165,29.5000195 C2.00001165,29.7759961 2.22401905,30 2.5,30 C2.77598078,30 2.99998818,29.7759961 2.99998818,29.5000195 L2.99998818,26.9494922 C4.1394786,26.7169922 5,25.7074805 5,24.4999805 C5.00005842,24.435 4.97158141,18 2.50005851,18 Z M2.50005851,25.9999805 C1.67305343,25.9999805 1.00003512,25.3269727 1.00003512,24.4999805 C1.00003512,22.0089844 1.66906899,18.9999609 2.50005851,18.9999609 C3.33104802,18.9999609 4.00008189,22.0089844 4.00008189,24.4999805 C4.00008189,25.3269727 3.32706359,25.9999805 2.50005851,25.9999805 Z" id="Shape" fill-rule="nonzero"></path>
                        <path d="M5.50006835,15 L3.5,15 C3.22400828,15 3,15.2240028 3,15.499978 L3,16.5 C3,16.7759679 3.22400828,16.9999707 3.5,16.9999707 C3.77597218,16.9999707 3.99998046,16.7759679 3.99998046,16.5 L3.99998046,16.0000146 L5.00001952,16.0000146 L5.00001952,18.500022 C5.00001952,18.7759972 5.2240278,19 5.5,19 C5.77599171,19 6,18.7759972 6,18.500022 L6,15.5000366 C6.00005858,15.2240028 5.7760503,15 5.50006835,15 Z" id="Path" fill-rule="nonzero"></path>
                        <path d="M24.5,13 L26.5,13 C26.7759917,13 27,12.7759939 27,12.5000146 L27,9.49998535 C27,9.22400609 26.7759917,9 26.5,9 L24.5,9 C24.2240083,9 24,9.22400609 24,9.49998535 L24,12.5000146 C24,12.7759939 24.2240083,13 24.5,13 Z M25.0000391,9.9999707 L26.0000781,9.9999707 L26.0000781,11.9999707 L25.0000391,11.9999707 L25.0000391,9.9999707 Z" id="Shape" fill-rule="nonzero"></path>
                        <path d="M5.50006834,9 L3.5,9 C3.22400828,9 3,9.22400609 3,9.49998535 L3,12.5000146 C3,12.7759939 3.22400828,13 3.5,13 L5.5,13 C5.7759917,13 6,12.7759939 6,12.5000146 L6,9.49998535 C6.00005857,9.22400609 5.77605029,9 5.50006834,9 Z M5.00001952,12.0000293 L4.00003906,12.0000293 L4.00003906,10.0000293 L5.00007811,10.0000293 L5.00007811,12.0000293 L5.00001952,12.0000293 Z" id="Shape" fill-rule="nonzero"></path>
                        <path d="M16,12.5000146 C16,12.7759939 16.2240083,13 16.5,13 L18.5,13 C18.7759917,13 19,12.7759939 19,12.5000146 L19,9.49998535 C19,9.22400609 18.7759917,9 18.5,9 L16.5,9 C16.2240083,9 16,9.22400609 16,9.49998535 L16,12.5000146 Z M16.9999805,10.0000293 L18.0000195,10.0000293 L18.0000195,12.0000293 L16.9999805,12.0000293 L16.9999805,10.0000293 Z" id="Shape" fill-rule="nonzero"></path>
                        <path d="M29.5000167,6 L23.4999833,6 C23.2240052,6 23,6.22400391 23,6.49998047 C23,6.77595703 23.2240052,6.99996094 23.4999833,6.99996094 L29.0000335,6.99996094 L29.0000335,27.0919922 C28.84306,27.0359766 28.6765356,27 28.5000502,27 C28.4135654,27 28.3275493,27.0075 28.2430566,27.0225 C27.8980547,26.4009961 27.2415666,25.9999805 26.5000586,25.9999805 C25.7585505,25.9999805 25.1020625,26.4009961 24.7570606,27.0225 C24.6725679,27.0075 24.5865518,27 24.500067,27 C23.6730702,27 23,27.6730078 23,28.5 C23,29.3269922 23.6730702,30 24.500067,30 L28.5,30 C29.3269884,30 30,29.3269922 30,28.5 L30,6.49998047 C30,6.22400391 29.7759948,6 29.5000167,6 Z M28.4999916,28.9999805 L24.4999498,28.9999805 C24.2244404,28.9999805 23.9999665,28.7755078 23.9999665,28.5 C23.9999665,28.2244922 24.2244404,28.0000195 24.4999498,28.0000195 C24.5959269,28.0000195 24.6869235,28.0275 24.7709474,28.0815234 C24.9079403,28.1695312 25.0789764,28.1855273 25.2299734,28.1245312 C25.3809703,28.0635352 25.4924748,27.9325195 25.528979,27.7740234 C25.6345069,27.3185156 26.0340013,27 26.5,27 C26.9659987,27 27.3654931,27.3185156 27.471021,27.7740234 C27.5075252,27.9325195 27.6190297,28.0635352 27.7700266,28.1245312 C27.9205548,28.1855273 28.0920011,28.1695312 28.2290526,28.0815234 C28.5545427,27.8715234 29.0000335,28.1285156 29.0000335,28.5 C28.9999665,28.7755078 28.775501,28.9999805 28.4999916,28.9999805 Z" id="Shape" fill-rule="nonzero"></path>
                        <path d="M16.5,7 L18.5,7 C18.7759917,7 19,6.77599391 19,6.50001465 L19,3.49998535 C19,3.22400609 18.7759917,3 18.5,3 L16.5,3 C16.2240083,3 16,3.22400609 16,3.49998535 L16,6.50001465 C16,6.77599391 16.2240083,7 16.5,7 Z M16.9999805,3.9999707 L18.0000195,3.9999707 L18.0000195,5.9999707 L16.9999805,5.9999707 L16.9999805,3.9999707 Z" id="Shape" fill-rule="nonzero"></path>
                        <path d="M16,18.5000146 C16,18.7759939 16.2240083,19 16.5,19 L18.5,19 C18.7759917,19 19,18.7759939 19,18.5000146 L19,15.4999854 C19,15.2240061 18.7759917,15 18.5,15 L16.5,15 C16.2240083,15 16,15.2240061 16,15.4999854 L16,18.5000146 Z M16.9999805,16.0000293 L18.0000195,16.0000293 L18.0000195,18.0000293 L16.9999805,18.0000293 L16.9999805,16.0000293 Z" id="Shape" fill-rule="nonzero"></path>
                        <path d="M11.5,7 L13.5,7 C13.7759917,7 14,6.77599391 14,6.50001465 L14,3.49998535 C14,3.22400609 13.7759917,3 13.5,3 L11.5,3 C11.2240083,3 11,3.22400609 11,3.49998535 L11,6.50001465 C10.9999414,6.77599391 11.2239497,7 11.5,7 Z M11.9999805,3.9999707 L13.0000195,3.9999707 L13.0000195,5.9999707 L11.9999805,5.9999707 L11.9999805,3.9999707 Z" id="Shape" fill-rule="nonzero"></path>
                        <path d="M15.1450082,24.1396398 C15.0550152,24.2352092 15,24.3660348 15,24.4968605 C15,24.6276862 15.0550152,24.758453 15.1450082,24.8540813 C15.2399813,24.9446393 15.3699906,25 15.5,25 C15.6300094,25 15.7599602,24.9446393 15.8549918,24.8540813 C15.9449848,24.7585119 16,24.6276862 16,24.4968605 C16,24.3660348 15.9449848,24.2352681 15.8549918,24.1396398 C15.6649871,23.9534534 15.3350129,23.9534534 15.1450082,24.1396398 Z" id="Path" fill-rule="nonzero"></path>
                        <path d="M11,18.5000146 C11,18.7759939 11.2240039,19 11.4999805,19 L13.5000195,19 C13.7759961,19 14,18.7759939 14,18.5000146 L14,15.4999854 C14,15.2240061 13.7759961,15 13.5000195,15 L11.5000391,15 C11.2240625,15 11.0000586,15.2240061 11.0000586,15.4999854 L11.0000586,18.5000146 L11,18.5000146 Z M12.0000195,16.0000293 L13.0000391,16.0000293 L13.0000391,18.0000293 L12.0000195,18.0000293 L12.0000195,16.0000293 Z" id="Shape" fill-rule="nonzero"></path>
                        <path d="M10,21.4999854 C10,21.7759646 10.2240061,21.9999707 10.4999854,21.9999707 L12,21.9999707 L12,26.5000146 C12,26.7759939 12.2240061,27 12.4999854,27 C12.7759646,27 12.9999707,26.7759939 12.9999707,26.5000146 L12.9999707,21.9999707 L17.0000293,21.9999707 L17.0000293,26.5000146 C17.0000293,26.7759939 17.2240354,27 17.5000146,27 C17.7759939,27 18,26.7759939 18,26.5000146 L18,21.9999707 L19.5000146,21.9999707 C19.7759939,21.9999707 20,21.7759646 20,21.4999854 C20,21.2240061 19.7759939,21 19.5000146,21 L10.4999854,21 C10.2240061,21 10,21.2240061 10,21.4999854 Z" id="Path" fill-rule="nonzero"></path>
                        <path d="M24,18.5000146 C24,18.7759939 24.2240083,19 24.5,19 L26.5,19 C26.7759917,19 27,18.7759939 27,18.5000146 L27,15.4999854 C27,15.2240061 26.7759917,15 26.5,15 L24.5,15 C24.2240083,15 24,15.2240061 24,15.4999854 L24,18.5000146 Z M25.0000391,16.0000293 L26.0000781,16.0000293 L26.0000781,18.0000293 L25.0000391,18.0000293 L25.0000391,16.0000293 Z" id="Shape" fill-rule="nonzero"></path>
                        <path d="M21.5000167,0 L8.49998326,0 C8.22400516,0 8,0.224004392 8,0.499981554 L8,26.5000184 C8,26.7759956 8.22400516,27 8.49998326,27 C8.77596136,27 8.99996652,26.7759956 8.99996652,26.5000184 L8.99996652,0.999963108 L21.0000335,0.999963108 L21.0000335,26.5000184 C21.0000335,26.7759956 21.2240386,27 21.5000167,27 C21.7759948,27 22,26.7759956 22,26.5000184 L22,0.499981554 C22,0.224004392 21.7760534,0 21.5000167,0 Z" id="Path" fill-rule="nonzero"></path>
                    </g>
                </g>
            </g>
        </g>
    </g>
</svg>