<?xml version="1.0" encoding="UTF-8"?>
<svg width="35px" height="35px" viewBox="0 0 35 35" version="1.1" xmlns="http://www.w3.org/2000/svg" xmlns:xlink="http://www.w3.org/1999/xlink">
    <!-- Generator: Sketch 58 (84663) - https://sketch.com -->
    <title>Icon/Colored/Consumers Copy</title>
    <desc>Created with Sketch.</desc>
    <g id="Homepage" stroke="none" stroke-width="1" fill="none" fill-rule="evenodd">
        <g transform="translate(-403.000000, -938.000000)" id="Group-10">
            <g transform="translate(164.000000, 924.000000)">
                <g id="Group-4">
                    <g id="Group-6" transform="translate(208.000000, 8.000000)">
                        <g id="Icon/Colored/Unwanted-Mods" transform="translate(31.000000, 6.000000)">
                            <rect id="Rectangle" fill="#EAF5F8" x="0" y="0" width="35" height="35" rx="17.5"></rect>
                            <g id="synchronize" stroke-width="1" transform="translate(7.549020, 7.549020)" fill="#36A1BD">
                                <path d="M19.9240987,7.03121442 C20.3428368,6.3335389 20.5882353,5.52030361 20.5882353,4.64895636 C20.5882353,2.08538899 18.5028463,0 15.9392789,0 C13.3757116,0 11.2903226,2.08538899 11.2903226,4.64895636 C11.2903226,4.99098672 11.3301708,5.32371917 11.4005693,5.64516129 L8.30170778,5.64516129 C7.38619545,5.64516129 6.64136622,6.38999051 6.64136622,7.30550285 L6.64136622,15.6072106 L5.9772296,15.6072106 L5.9772296,16.9374763 L5.2845351,16.9381404 L5.15037951,15.3176471 C5.08330171,14.5080645 4.63600569,13.8070683 3.99577799,13.3820209 C4.77381404,13.0057875 5.31309298,12.2108159 5.31309298,11.2903226 C5.31309298,10.0085389 4.27039848,8.9658444 2.9886148,8.9658444 C1.70683112,8.9658444 0.664136622,10.0085389 0.664136622,11.2903226 C0.664136622,12.0490987 1.03140417,12.7222011 1.59558824,13.1465844 C0.660151803,13.5341082 0,14.4559298 0,15.5298387 L0,20.5882353 L5.64516129,20.5882353 L5.64516129,19.259962 L8.13567362,19.259962 C8.45113852,19.259962 8.73671727,19.1327799 8.94658444,18.9278937 L18.9278937,18.9278937 C19.8434061,18.9278937 20.5882353,18.1830645 20.5882353,17.2675522 L20.5882353,15.6072106 L19.9240987,15.6072106 L19.9240987,7.03121442 Z M15.9392789,0.664136622 C18.136575,0.664136622 19.9240987,2.45166034 19.9240987,4.64895636 C19.9240987,6.84625237 18.136575,8.63377609 15.9392789,8.63377609 C13.7419829,8.63377609 11.9544592,6.84625237 11.9544592,4.64895636 C11.9544592,2.45166034 13.7419829,0.664136622 15.9392789,0.664136622 Z M15.9392789,9.29791271 C16.6528937,9.29791271 17.3266603,9.13154649 17.9316888,8.84297913 L17.9316888,14.2789374 L8.63377609,14.2789374 L8.63377609,7.63757116 L12.3834915,7.63757116 C13.236907,8.65137571 14.5133776,9.29791271 15.9392789,9.29791271 Z M7.30550285,7.30550285 C7.30550285,6.75626186 7.75246679,6.30929791 8.30170778,6.30929791 L11.6021347,6.30929791 C11.690797,6.54008539 11.7963947,6.76190702 11.91926,6.97343454 L8.63377609,6.97343454 C8.26750474,6.97343454 7.96963947,7.27129981 7.96963947,7.63757116 L7.96963947,14.2789374 C7.96963947,14.6452087 8.26750474,14.943074 8.63377609,14.943074 L17.9316888,14.943074 C18.2979602,14.943074 18.5958254,14.6452087 18.5958254,14.2789374 L18.5958254,8.45877609 C18.8345825,8.29174573 19.0570683,8.10412713 19.259962,7.89658444 L19.259962,15.6072106 L7.30550285,15.6072106 L7.30550285,7.30550285 Z M15.2140417,16.2713472 C15.0765655,16.6568786 14.7112903,16.9354839 14.2789374,16.9354839 L12.2865275,16.9354839 C11.8541746,16.9354839 11.4888994,16.6568786 11.3514231,16.2713472 L15.2140417,16.2713472 Z M1.32827324,11.2903226 C1.32827324,10.3748102 2.07310247,9.62998102 2.9886148,9.62998102 C3.90412713,9.62998102 4.64895636,10.3748102 4.64895636,11.2903226 C4.64895636,12.2058349 3.90412713,12.9506641 2.9886148,12.9506641 C2.07310247,12.9506641 1.32827324,12.2058349 1.32827324,11.2903226 Z M8.13567362,18.5958254 L4.77813093,18.5958254 C4.28899431,18.5958254 3.87590133,18.2458254 3.7955408,17.7633302 L3.31636622,14.8882827 L2.66119545,14.9975332 L3.14037002,17.8725806 C3.27419355,18.676518 3.96290323,19.259962 4.77813093,19.259962 L4.98102467,19.259962 L4.98102467,19.9240987 L0.664136622,19.9240987 L0.664136622,15.5298387 C0.664136622,14.4738615 1.52352941,13.6148008 2.57983871,13.6148008 C3.56873814,13.6148008 4.40721063,14.3868596 4.48889943,15.3724383 L4.62305503,16.9955882 C4.65426945,17.3399431 4.93851992,17.5996205 5.28420304,17.5996205 L8.13567362,17.5996205 C8.41029412,17.5996205 8.63377609,17.8231025 8.63377609,18.097723 C8.63377609,18.3723435 8.41029412,18.5958254 8.13567362,18.5958254 L8.13567362,18.5958254 Z M19.9240987,17.2675522 C19.9240987,17.8167932 19.4771347,18.2637571 18.9278937,18.2637571 L9.28097723,18.2637571 C9.28894687,18.2089658 9.29791271,18.1545066 9.29791271,18.097723 C9.29791271,17.4568311 8.77656546,16.9354839 8.13567362,16.9354839 L6.64136622,16.9368121 L6.64136622,16.2713472 L10.6597249,16.2713472 C10.8141366,17.0281309 11.4845825,17.5996205 12.2865275,17.5996205 L14.2789374,17.5996205 C15.0805503,17.5996205 15.7513283,17.0281309 15.90574,16.2713472 L19.9240987,16.2713472 L19.9240987,17.2675522 Z" id="Shape" fill-rule="nonzero"></path>
                                <path d="M12.6185958,13.6148008 L13.2827324,13.6148008 C13.6490038,13.6148008 13.9468691,13.3169355 13.9468691,12.9506641 L13.9468691,10.2941176 C13.9468691,9.9278463 13.6490038,9.62998102 13.2827324,9.62998102 L12.6185958,9.62998102 C12.2523245,9.62998102 11.9544592,9.9278463 11.9544592,10.2941176 L11.9544592,12.9506641 C11.9544592,13.3169355 12.2523245,13.6148008 12.6185958,13.6148008 Z M12.6185958,10.2941176 L13.2827324,10.2941176 L13.2830645,12.9506641 L12.6185958,12.9506641 L12.6185958,10.2941176 Z" id="Shape" fill-rule="nonzero"></path>
                                <path d="M9.96204934,13.6148008 L10.626186,13.6148008 C10.9924573,13.6148008 11.2903226,13.3169355 11.2903226,12.9506641 L11.2903226,10.2941176 C11.2903226,9.9278463 10.9924573,9.62998102 10.626186,9.62998102 L9.96204934,9.62998102 C9.59577799,9.62998102 9.29791271,9.9278463 9.29791271,10.2941176 L9.29791271,12.9506641 C9.29791271,13.3169355 9.59577799,13.6148008 9.96204934,13.6148008 Z M9.96204934,10.2941176 L10.626186,10.2941176 L10.626518,12.9506641 L9.96204934,12.9506641 L9.96204934,10.2941176 Z" id="Shape" fill-rule="nonzero"></path>
                                <polygon id="Path" fill-rule="nonzero" points="14.6110057 9.62998102 15.2751423 9.62998102 15.2751423 13.6148008 14.6110057 13.6148008"></polygon>
                                <polygon id="Path" fill-rule="nonzero" points="15.9392789 9.62998102 16.6034156 9.62998102 16.6034156 13.6148008 15.9392789 13.6148008"></polygon>
                                <polygon id="Path" fill-rule="nonzero" points="9.29791271 8.30170778 9.96204934 8.30170778 9.96204934 8.9658444 9.29791271 8.9658444"></polygon>
                                <polygon id="Path" fill-rule="nonzero" points="10.626186 8.30170778 11.2903226 8.30170778 11.2903226 8.9658444 10.626186 8.9658444"></polygon>
                                <polygon id="Path" fill-rule="nonzero" points="11.9544592 8.30170778 12.6185958 8.30170778 12.6185958 8.9658444 11.9544592 8.9658444"></polygon>
                            </g>
                            <g id="pencil-(2)" stroke-width="1" transform="translate(21.274510, 9.607843)" fill="#36A1BD">
                                <path d="M4.72767493,0.748551497 C4.72749396,0.550700924 4.65028311,0.364809555 4.51024133,0.225092957 C4.2214142,-0.063083831 3.75186234,-0.0626864025 3.46336038,0.226176868 L0.483136913,3.21839566 C0.386198806,3.31526151 0.312203562,3.4351786 0.269136018,3.56521223 L0.266353972,3.57366677 L5.68434189e-14,4.74494499 L1.17452997,4.48198728 L1.18327355,4.47909684 C1.31334332,4.4360293 1.43333267,4.36210632 1.53052369,4.26495144 L4.51114459,1.27237134 C4.65093346,1.13240182 4.72785527,0.946365923 4.72767493,0.748551497 Z M0.651324346,4.22025802 L0.526782545,4.09564396 L0.616711332,3.70008735 L1.04785647,4.1314854 L0.651324346,4.22025802 Z M4.24937919,1.01129242 L1.35572438,3.91658125 L0.83172388,3.39225558 L2.81387869,1.40215206 L3.11571281,1.70398617 L3.37711691,1.44258208 L3.07474083,1.14020601 L3.35594444,0.857918483 L3.65886246,1.16083651 L3.92026656,0.899432423 L3.61680657,0.595972435 L3.72508965,0.487255793 C3.86943096,0.342733833 4.10453206,0.342517045 4.24912628,0.48678609 C4.31921943,0.556734718 4.35787906,0.649806861 4.35798754,0.748840541 C4.35805971,0.84791034 4.31958074,0.94101861 4.24937919,1.01129242 Z M1.94475975,4.37124733 L4.72767461,4.37124733 L4.72767461,4.74093451 L1.57633715,4.74093451 L1.94475975,4.37124733 Z" id="Shape" fill-rule="nonzero"></path>
                            </g>
                        </g>
                    </g>
                </g>
            </g>
        </g>
    </g>
</svg>