<?xml version="1.0" encoding="UTF-8"?>
<svg width="35px" height="35px" viewBox="0 0 35 35" version="1.1" xmlns="http://www.w3.org/2000/svg" xmlns:xlink="http://www.w3.org/1999/xlink">
    <!-- Generator: Sketch 58 (84663) - https://sketch.com -->
    <title>Icon/Colored/Consumers Copy 2</title>
    <desc>Created with Sketch.</desc>
    <g id="Homepage" stroke="none" stroke-width="1" fill="none" fill-rule="evenodd">
        <g transform="translate(-299.000000, -930.000000)" id="Group-10">
            <g transform="translate(164.000000, 924.000000)">
                <g id="Group-4">
                    <g id="Group-7" transform="translate(104.000000, 0.000000)">
                        <g id="Icon/Colored/Destruction-of-aData" transform="translate(31.000000, 6.000000)">
                            <rect id="Rectangle-Copy-4" fill="#F6F8F0" fill-rule="evenodd" x="0" y="0" width="35" height="35" rx="17.5"></rect>
                            <path d="M13.8869666,16.241268 L13.8869666,15.4319025 C13.8869666,14.9855374 13.5248558,14.622537 13.0795848,14.622537 L12.6758939,14.622537 L12.6758939,14.1806234 C12.6758939,13.5792648 12.9738178,13.0212073 13.4731834,12.6877487 C13.7323529,12.5145445 13.8869666,12.224387 13.8869666,11.9123765 C13.8869666,11.3984294 13.4699539,10.9803922 12.9572664,10.9803922 L12.3497116,10.9803922 C11.155594,10.9803922 10.0975202,11.6987041 9.6538639,12.8099629 C9.51620531,13.1551573 9.44636678,13.5189671 9.44636678,13.8908705 L9.44636678,14.622537 L9.04267589,14.622537 C8.59740484,14.622537 8.23529412,14.9855374 8.23529412,15.4319025 L8.23529412,20.2880956 C8.23529412,20.7344607 8.59740484,21.0974611 9.04267589,21.0974611 L9.44636678,21.0974611 L9.44636678,21.5713446 C8.97647059,21.7384786 8.63898501,22.1884858 8.63898501,22.7161921 L8.63898501,23.1208749 C8.63898501,23.7902202 9.18235294,24.3349232 9.85005767,24.3349232 L12.272203,24.3349232 C12.9399077,24.3349232 13.4832757,23.7902202 13.4832757,23.1208749 L13.4832757,22.7161921 C13.4832757,22.1884858 13.1457901,21.7384786 12.6758939,21.5713446 L12.6758939,21.0974611 L13.0795848,21.0974611 C13.5248558,21.0974611 13.8869666,20.7344607 13.8869666,20.2880956 L13.8869666,19.4787301 L28.8235294,19.4787301 L28.8235294,16.241268 L13.8869666,16.241268 Z M10.1828299,13.8786433 C10.1828299,13.6147324 10.2325119,13.3571807 10.3306836,13.1123476 C10.6458665,12.3241918 11.3982512,11.8150503 12.2464229,11.8150503 L12.8445946,11.8150503 C12.9109698,11.8150503 12.9650238,11.8691044 12.9650238,11.9354796 C12.9650238,11.9760201 12.9447536,12.013381 12.9113672,12.0356386 C12.1983307,12.5109963 11.772655,13.3063063 11.772655,14.163222 L11.772655,14.5972443 L10.1828299,14.5972443 L10.1828299,13.8786433 Z M12.6868045,23.0829359 C12.6868045,23.3128842 12.499841,23.500265 12.2694754,23.500265 L9.76550079,23.500265 C9.53513514,23.500265 9.3481717,23.3128842 9.3481717,23.0829359 L9.3481717,22.6656068 C9.3481717,22.4356585 9.53513514,22.2482777 9.76550079,22.2482777 L10.1828299,22.2482777 L10.1828299,20.9962904 L11.8521463,20.9962904 L11.8521463,22.2482777 L12.2694754,22.2482777 C12.499841,22.2482777 12.6868045,22.4356585 12.6868045,22.6656068 L12.6868045,23.0829359 Z M13.2432432,20.1616322 L9.06995231,20.1616322 L9.06995231,15.4319025 L13.242826,15.4319025 L13.242826,16.2201908 L13.242826,19.3733439 L13.2432432,19.3733439 L13.2432432,20.1616322 Z M27.9888712,18.7705352 L13.799682,18.7705352 L13.799682,17.1012189 L27.9888712,17.1012189 L27.9888712,18.7705352 Z" id="Shape" fill="#AEC170" fill-rule="nonzero" transform="translate(18.529412, 17.657658) rotate(82.000000) translate(-18.529412, -17.657658) "></path>
                            <rect id="Rectangle" fill="#AEC170" fill-rule="nonzero" x="7.99177736" y="17.1568627" width="1.12903226" height="1.12903226"></rect>
                            <rect id="Rectangle" fill="#AEC170" fill-rule="nonzero" x="7.99177736" y="19.4149273" width="1.12903226" height="1.12903226"></rect>
                            <rect id="Rectangle" fill="#AEC170" fill-rule="nonzero" x="9.12080961" y="18.285895" width="1.12903226" height="1.12903226"></rect>
                            <rect id="Rectangle" fill="#AEC170" fill-rule="nonzero" x="6.8627451" y="18.285895" width="1.12903226" height="1.12903226"></rect>
                            <rect id="Rectangle" fill="#AEC170" fill-rule="nonzero" x="28.5800127" y="17.8431373" width="1.12903226" height="1.12903226"></rect>
                            <rect id="Rectangle" fill="#AEC170" fill-rule="nonzero" x="28.5800127" y="20.1012018" width="1.12903226" height="1.12903226"></rect>
                            <rect id="Rectangle" fill="#AEC170" fill-rule="nonzero" x="29.7090449" y="18.9721695" width="1.12903226" height="1.12903226"></rect>
                            <rect id="Rectangle" fill="#AEC170" fill-rule="nonzero" x="27.4509804" y="18.9721695" width="1.12903226" height="1.12903226"></rect>
                        </g>
                    </g>
                </g>
            </g>
        </g>
    </g>
</svg>