<?xml version="1.0" encoding="UTF-8"?>
<svg width="50px" height="50px" viewBox="0 0 50 50" version="1.1" xmlns="http://www.w3.org/2000/svg" xmlns:xlink="http://www.w3.org/1999/xlink">
    <!-- Generator: Sketch 58 (84663) - https://sketch.com -->
    <title>Icon/Colored/Consumers Copy</title>
    <desc>Created with Sketch.</desc>
    <g id="Homepage" stroke="none" stroke-width="1" fill="none" fill-rule="evenodd">
        <g transform="translate(-367.000000, -1724.000000)" id="Group-12">
            <g transform="translate(120.000000, 1685.000000)">
                <g id="Icon/Colored/Consumers" transform="translate(247.000000, 39.000000)">
                    <g id="Group-4" fill="#EAF5F8">
                        <rect id="Rectangle" x="0" y="0" width="50" height="50" rx="25"></rect>
                    </g>
                    <g id="onboarding" transform="translate(10.000000, 10.000000)" fill="#36A1BD">
                        <path d="M30,15 L30,10.1612903 C30,8.04241935 28.4782258,6.27435484 26.4706452,5.88725806 C27.1504839,5.26741935 27.5806452,4.37758065 27.5806452,3.38709677 C27.5806452,1.51983871 26.0608065,0 24.1935484,0 C22.3262903,0 20.8064516,1.51983871 20.8064516,3.38709677 C20.8064516,4.33451613 21.1983871,5.19096774 21.8279032,5.80645161 L15.2419355,5.80645161 C14.5480645,5.80645161 13.9514516,6.22693548 13.6901613,6.82596774 L9.64016129,9.3183871 C9.2583871,9.55306452 8.82,9.67741935 8.37193548,9.67741935 L8.17258065,9.67741935 C8.8016129,9.06193548 9.19354839,8.20548387 9.19354839,7.25806452 C9.19354839,5.39080645 7.67370968,3.87096774 5.80645161,3.87096774 C3.93919355,3.87096774 2.41935484,5.39080645 2.41935484,7.25806452 C2.41935484,8.34 2.93129032,9.30290323 3.72387097,9.92370968 C1.56774194,10.6040323 0,12.6222581 0,15 L0,18.3870968 C0,19.4545161 0.868064516,20.3225806 1.93548387,20.3225806 L2.41935484,20.3225806 L2.41935484,27.0967742 C1.08532258,27.0967742 0,28.1820968 0,29.516129 L0,30 L11.6129032,30 L11.6129032,29.516129 C11.6129032,28.1820968 10.5275806,27.0967742 9.19354839,27.0967742 L9.19354839,15.1277419 C9.19354839,14.3037097 9.60677419,13.5445161 10.2982258,13.0969355 L16.3306452,9.19354839 L20.3225806,9.19354839 C20.5896774,9.19354839 20.8064516,9.41032258 20.8064516,9.67741935 L20.8074194,25.1612903 L20.8064516,25.1612903 C19.4724194,25.1612903 18.3870968,26.2466129 18.3870968,27.5806452 L18.3870968,30 L30,30 L30,27.5806452 C30,26.2466129 28.9146774,25.1612903 27.5806452,25.1612903 L27.5806452,17.4193548 C28.9146774,17.4193548 30,16.3340323 30,15 Z M21.7741935,3.38709677 C21.7741935,2.05306452 22.8595161,0.967741935 24.1935484,0.967741935 C25.5275806,0.967741935 26.6129032,2.05306452 26.6129032,3.38709677 C26.6129032,4.72112903 25.5275806,5.80645161 24.1935484,5.80645161 C22.8595161,5.80645161 21.7741935,4.72112903 21.7741935,3.38709677 Z M3.38709677,7.25806452 C3.38709677,5.92403226 4.47241935,4.83870968 5.80645161,4.83870968 C7.14048387,4.83870968 8.22580645,5.92403226 8.22580645,7.25806452 C8.22580645,8.59209677 7.14048387,9.67741935 5.80645161,9.67741935 C4.47241935,9.67741935 3.38709677,8.59209677 3.38709677,7.25806452 Z M10.5624194,29.0322581 L1.05048387,29.0322581 C1.25032258,28.4690323 1.7883871,28.0645161 2.41935484,28.0645161 L9.19354839,28.0645161 C9.82451613,28.0645161 10.3625806,28.4690323 10.5624194,29.0322581 Z M9.77274194,12.2840323 C8.80403226,12.911129 8.22580645,13.9741935 8.22580645,15.1277419 L8.22580645,27.0967742 L6.29032258,27.0967742 L6.29032258,18.3870968 L5.32258065,18.3870968 L5.32258065,27.0967742 L3.38709677,27.0967742 L3.38709677,14.0322581 L2.41935484,14.0322581 L2.41935484,19.3548387 L1.93548387,19.3548387 C1.40177419,19.3548387 0.967741935,18.9208065 0.967741935,18.3870968 L0.967741935,15 C0.967741935,12.5985484 2.92112903,10.6451613 5.32258065,10.6451613 L5.80645161,10.6451613 L8.37193548,10.6451613 C8.99854839,10.6451613 9.61209677,10.4719355 10.1472581,10.1429032 L13.6320968,7.9983871 C13.7927419,8.51467742 14.1895161,8.92209677 14.6995161,9.09629032 L9.77274194,12.2840323 Z M29.0322581,27.5806452 L29.0322581,29.0322581 L19.3548387,29.0322581 L19.3548387,27.5806452 C19.3548387,26.7803226 20.006129,26.1290323 20.8064516,26.1290323 L27.5806452,26.1290323 C28.3809677,26.1290323 29.0322581,26.7803226 29.0322581,27.5806452 Z M26.6129032,9.19354839 L26.6129032,25.1612903 L24.6774194,25.1612903 L24.6774194,14.0322581 L23.7096774,14.0322581 L23.7096774,25.1612903 L21.7751613,25.1612903 L21.7741935,9.67741935 C21.7741935,8.87709677 21.1229032,8.22580645 20.3225806,8.22580645 L15.2419355,8.22580645 C14.8417742,8.22580645 14.516129,7.90016129 14.516129,7.5 C14.516129,7.09983871 14.8417742,6.77419355 15.2419355,6.77419355 L25.6451613,6.77419355 C27.5124194,6.77419355 29.0322581,8.29403226 29.0322581,10.1612903 L29.0322581,15 C29.0322581,15.8003226 28.3809677,16.4516129 27.5806452,16.4516129 L27.5806452,9.19354839 L26.6129032,9.19354839 Z" id="Shape" fill-rule="nonzero"></path>
                        <path d="M15.483871,2.41935484 C15.483871,1.08532258 14.3985484,0 13.0645161,0 L11.1290323,0 C9.795,0 8.70967742,1.08532258 8.70967742,2.41935484 L8.70967742,4.83870968 L13.0645161,4.83870968 C14.3985484,4.83870968 15.483871,3.7533871 15.483871,2.41935484 Z M9.67741935,2.41935484 C9.67741935,1.61903226 10.3287097,0.967741935 11.1290323,0.967741935 L13.0645161,0.967741935 C13.8648387,0.967741935 14.516129,1.61903226 14.516129,2.41935484 C14.516129,3.21967742 13.8648387,3.87096774 13.0645161,3.87096774 L9.67741935,3.87096774 L9.67741935,2.41935484 Z" id="Shape" fill-rule="nonzero"></path>
                        <polygon id="Path" fill-rule="nonzero" points="10.6451613 1.93548387 11.6129032 1.93548387 11.6129032 2.90322581 10.6451613 2.90322581"></polygon>
                        <polygon id="Path" fill-rule="nonzero" points="12.5806452 1.93548387 13.5483871 1.93548387 13.5483871 2.90322581 12.5806452 2.90322581"></polygon>
                        <path d="M19.8387097,13.5483871 L19.8387097,11.1290323 L15.483871,11.1290323 C14.1498387,11.1290323 13.0645161,12.2143548 13.0645161,13.5483871 C13.0645161,14.8824194 14.1498387,15.9677419 15.483871,15.9677419 L17.4193548,15.9677419 C18.7533871,15.9677419 19.8387097,14.8824194 19.8387097,13.5483871 Z M18.8709677,13.5483871 C18.8709677,14.3487097 18.2196774,15 17.4193548,15 L15.483871,15 C14.6835484,15 14.0322581,14.3487097 14.0322581,13.5483871 C14.0322581,12.7480645 14.6835484,12.0967742 15.483871,12.0967742 L18.8709677,12.0967742 L18.8709677,13.5483871 Z" id="Shape" fill-rule="nonzero"></path>
                        <polygon id="Path" fill-rule="nonzero" points="16.9354839 13.0645161 17.9032258 13.0645161 17.9032258 14.0322581 16.9354839 14.0322581"></polygon>
                        <polygon id="Path" fill-rule="nonzero" points="15 13.0645161 15.9677419 13.0645161 15.9677419 14.0322581 15 14.0322581"></polygon>
                    </g>
                </g>
            </g>
        </g>
    </g>
</svg>