<?xml version="1.0" encoding="UTF-8"?>
<svg width="50px" height="50px" viewBox="0 0 50 50" version="1.1" xmlns="http://www.w3.org/2000/svg" xmlns:xlink="http://www.w3.org/1999/xlink">
    <!-- Generator: Sketch 58 (84663) - https://sketch.com -->
    <title>Icon/Colored/Consumers Copy 2</title>
    <desc>Created with Sketch.</desc>
    <g id="Homepage" stroke="none" stroke-width="1" fill="none" fill-rule="evenodd">
        <g transform="translate(-537.000000, -1724.000000)" id="Group-12">
            <g transform="translate(120.000000, 1685.000000)">
                <g id="Icon/Colored/Customers" transform="translate(417.000000, 39.000000)">
                    <g id="icon-customers">
                        <rect id="Rectangle-Copy-2" fill="#F7EFF9" x="0" y="0" width="50" height="50" rx="25"></rect>
                        <path d="M35.9774138,16.6458621 C37.147931,15.9139655 37.9310345,14.6172414 37.9310345,13.137931 C37.9310345,10.8563793 36.0746552,9 33.7931034,9 C31.5115517,9 29.6551724,10.8563793 29.6551724,13.137931 C29.6551724,14.6146552 30.4351724,15.9093103 31.6025862,16.6417241 C30.2774138,17.142931 29.1462069,18.092069 28.4215517,19.3432759 C28.0377586,19.0882759 27.6218966,18.8798276 27.1843103,18.7143103 C28.3548276,17.982931 29.137931,16.6862069 29.137931,15.2068966 C29.137931,12.9253448 27.2815517,11.0689655 25,11.0689655 C22.7184483,11.0689655 20.862069,12.9253448 20.862069,15.2068966 C20.862069,16.6862069 21.6451724,17.982931 22.8156897,18.7148276 C22.3781034,18.8798276 21.9622414,19.0887931 21.5784483,19.3437931 C20.8537931,18.0925862 19.7231034,17.1434483 18.397931,16.6422414 C19.5648276,15.9098276 20.3448276,14.6146552 20.3448276,13.137931 C20.3448276,10.8563793 18.4884483,9 16.2068966,9 C13.9253448,9 12.0689655,10.8563793 12.0689655,13.137931 C12.0689655,14.6172414 12.852069,15.9139655 14.0225862,16.6458621 C11.6758621,17.5324138 10,19.7953448 10,22.4482759 L10,26.5862069 C10,27.7272414 10.927931,28.6551724 12.0689655,28.6551724 L12.5862069,28.6551724 L12.5862069,36.9310345 C12.5862069,38.072069 13.5141379,39 14.6551724,39 C15.2763793,39 15.8272414,38.7196552 16.2068966,38.2851724 C16.5865517,38.7196552 17.1374138,39 17.7586207,39 C18.8996552,39 19.8275862,38.072069 19.8275862,36.9310345 L19.8275862,30.4365517 C20.1332759,30.6144828 20.4834483,30.7241379 20.862069,30.7241379 L21.3793103,30.7241379 L21.3793103,39 C21.3793103,40.1410345 22.3072414,41.0689655 23.4482759,41.0689655 C24.0694828,41.0689655 24.6203448,40.7886207 25,40.3541379 C25.3796552,40.7886207 25.9305172,41.0689655 26.5517241,41.0689655 C27.6927586,41.0689655 28.6206897,40.1410345 28.6206897,39 L28.6206897,30.7241379 L29.137931,30.7241379 C29.5165517,30.7241379 29.8667241,30.6144828 30.1724138,30.4365517 L30.1724138,36.9310345 C30.1724138,38.072069 31.1003448,39 32.2413793,39 C32.8625862,39 33.4134483,38.7196552 33.7931034,38.2851724 C34.1727586,38.7196552 34.7236207,39 35.3448276,39 C36.4858621,39 37.4137931,38.072069 37.4137931,36.9310345 L37.4137931,28.6551724 L37.9310345,28.6551724 C39.072069,28.6551724 40,27.7272414 40,26.5862069 L40,22.4482759 C40,19.7953448 38.3241379,17.5324138 35.9774138,16.6458621 Z M32.677931,17.4113793 C33.0410345,17.3306897 33.4118966,17.2758621 33.7931034,17.2758621 C34.1784483,17.2758621 34.552931,17.3213793 34.915,17.402069 L33.7931034,18.9724138 L32.677931,17.4113793 Z M33.117069,19.8062069 L32.4410345,20.4822414 L31.4458621,17.8525862 C31.5131034,17.8184483 31.5767241,17.7775862 31.6455172,17.7460345 L33.117069,19.8062069 Z M34.4686207,19.8062069 L35.9386207,17.7481034 C36.0074138,17.7796552 36.0751724,17.8122414 36.1424138,17.8463793 L35.1441379,20.4822414 L34.4686207,19.8062069 Z M30.6896552,13.137931 C30.6896552,11.4263793 32.0815517,10.0344828 33.7931034,10.0344828 C35.5046552,10.0344828 36.8965517,11.4263793 36.8965517,13.137931 C36.8965517,14.8494828 35.5046552,16.2413793 33.7931034,16.2413793 C32.0815517,16.2413793 30.6896552,14.8494828 30.6896552,13.137931 Z M25.5058621,23.3436207 L25,24.1018966 L24.4941379,23.3436207 L24.787931,19.3551724 C24.8587931,19.3525862 24.9286207,19.3448276 25,19.3448276 C25.0713793,19.3448276 25.1412069,19.3525862 25.212069,19.3556897 L25.5058621,23.3436207 Z M21.8965517,15.2068966 C21.8965517,13.4953448 23.2884483,12.1034483 25,12.1034483 C26.7115517,12.1034483 28.1034483,13.4953448 28.1034483,15.2068966 C28.1034483,16.9184483 26.7115517,18.3103448 25,18.3103448 C23.2884483,18.3103448 21.8965517,16.9184483 21.8965517,15.2068966 Z M16.2068966,17.2758621 C16.5281034,17.2758621 16.8415517,17.3156897 17.1498276,17.3731034 C16.9874138,17.9218966 16.6201724,18.3103448 16.2068966,18.3103448 C15.792069,18.3103448 15.4232759,17.9187931 15.2618966,17.3663793 C15.5686207,17.3094828 15.8836207,17.2758621 16.2068966,17.2758621 Z M13.1034483,13.137931 C13.1034483,11.4263793 14.4953448,10.0344828 16.2068966,10.0344828 C17.9184483,10.0344828 19.3103448,11.4263793 19.3103448,13.137931 C19.3103448,14.8494828 17.9184483,16.2413793 16.2068966,16.2413793 C14.4953448,16.2413793 13.1034483,14.8494828 13.1034483,13.137931 Z M18.7931034,36.9310345 C18.7931034,37.5015517 18.3291379,37.9655172 17.7586207,37.9655172 C17.1881034,37.9655172 16.7241379,37.5015517 16.7241379,36.9310345 L16.7241379,26.0689655 L15.6896552,26.0689655 L15.6896552,36.9310345 C15.6896552,37.5015517 15.2256897,37.9655172 14.6551724,37.9655172 C14.0846552,37.9655172 13.6206897,37.5015517 13.6206897,36.9310345 L13.6206897,20.3793103 L12.5862069,20.3793103 L12.5862069,27.6206897 L12.0689655,27.6206897 C11.4984483,27.6206897 11.0344828,27.1567241 11.0344828,26.5862069 L11.0344828,22.4482759 C11.0344828,20.2805172 12.3767241,18.4231034 14.2724138,17.655 C14.5636207,18.6496552 15.3172414,19.3448276 16.2068966,19.3448276 C17.0939655,19.3448276 17.845,18.6537931 18.1387931,17.6637931 C19.2431034,18.1106897 20.1715517,18.9294828 20.7513793,20.0048276 C19.5487931,21.137069 18.7931034,22.7389655 18.7931034,24.5172414 L18.7931034,26.0968966 L18.7931034,28.6551724 L18.7931034,36.9310345 Z M29.137931,29.6896552 L28.6206897,29.6896552 L28.6206897,22.4482759 L27.5862069,22.4482759 L27.5862069,39 C27.5862069,39.5705172 27.1222414,40.0344828 26.5517241,40.0344828 C25.9812069,40.0344828 25.5172414,39.5705172 25.5172414,39 L25.5172414,28.137931 L24.4827586,28.137931 L24.4827586,39 C24.4827586,39.5705172 24.0187931,40.0344828 23.4482759,40.0344828 C22.8777586,40.0344828 22.4137931,39.5705172 22.4137931,39 L22.4137931,22.4482759 L21.3793103,22.4482759 L21.3793103,29.6896552 L20.862069,29.6896552 C20.2915517,29.6896552 19.8275862,29.2256897 19.8275862,28.6551724 L19.8275862,26.0968966 L19.8275862,24.5172414 C19.8275862,22.1006897 21.4962069,20.0715517 23.74,19.5067241 L23.4368966,23.6218966 L25,25.967069 L26.5631034,23.6218966 L26.26,19.5067241 C28.5037931,20.0715517 30.1724138,22.1006897 30.1724138,24.5172414 L30.1724138,26.0689655 L30.1724138,28.6551724 C30.1724138,29.2256897 29.7084483,29.6896552 29.137931,29.6896552 Z M38.9655172,26.5862069 C38.9655172,27.1567241 38.5015517,27.6206897 37.9310345,27.6206897 L37.4137931,27.6206897 L37.4137931,20.8965517 L36.3793103,20.8965517 L36.3793103,36.9310345 C36.3793103,37.5015517 35.9153448,37.9655172 35.3448276,37.9655172 C34.7743103,37.9655172 34.3103448,37.5015517 34.3103448,36.9310345 L34.3103448,26.0689655 L33.2758621,26.0689655 L33.2758621,36.9310345 C33.2758621,37.5015517 32.8118966,37.9655172 32.2413793,37.9655172 C31.6708621,37.9655172 31.2068966,37.5015517 31.2068966,36.9310345 L31.2068966,28.6551724 L31.2068966,26.0689655 L31.2068966,24.5172414 C31.2068966,22.7389655 30.4512069,21.137069 29.2486207,20.0048276 C29.5812069,19.3877586 30.0255172,18.8544828 30.5572414,18.4277586 L32.0412069,22.3458621 L33.7931034,20.5939655 L35.545,22.3458621 L37.0310345,18.4210345 C38.2087931,19.3701724 38.9655172,20.8215517 38.9655172,22.4482759 L38.9655172,26.5862069 Z" id="Shape" fill="#B367C6" fill-rule="nonzero"></path>
                    </g>
                </g>
            </g>
        </g>
    </g>
</svg>