<?xml version="1.0" encoding="UTF-8"?>
<svg width="35px" height="35px" viewBox="0 0 35 35" version="1.1" xmlns="http://www.w3.org/2000/svg" xmlns:xlink="http://www.w3.org/1999/xlink">
    <!-- Generator: Sketch 58 (84663) - https://sketch.com -->
    <title>Icon/Colored/Consumers</title>
    <desc>Created with Sketch.</desc>
    <g id="Homepage" stroke="none" stroke-width="1" fill="none" fill-rule="evenodd">
        <g transform="translate(-195.000000, -938.000000)" id="Group-10">
            <g transform="translate(164.000000, 924.000000)">
                <g id="Group-4">
                    <g id="Group-5" transform="translate(0.000000, 8.000000)">
                        <g id="Icon/Colored/Illigitimate-access" transform="translate(31.000000, 6.000000)">
                            <g id="Group" fill="#FFFAEE">
                                <rect id="Rectangle-Copy-9" x="0" y="0" width="35" height="35" rx="17.5"></rect>
                            </g>
                            <g id="data-loss" transform="translate(7.000000, 7.700000)" fill="#FFCF5B">
                                <path d="M4.06451613,13.5483871 L7.4516129,13.5483871 C8.19880645,13.5483871 8.80645161,12.9407419 8.80645161,12.1935484 C8.80645161,11.4463548 8.19880645,10.8387097 7.4516129,10.8387097 L4.06451613,10.8387097 C3.31732258,10.8387097 2.70967742,11.4463548 2.70967742,12.1935484 C2.70967742,12.9407419 3.31732258,13.5483871 4.06451613,13.5483871 Z M4.06451613,11.516129 L7.4516129,11.516129 C7.82520968,11.516129 8.12903226,11.8199516 8.12903226,12.1935484 C8.12903226,12.5671452 7.82520968,12.8709677 7.4516129,12.8709677 L4.06451613,12.8709677 C3.69091935,12.8709677 3.38709677,12.5671452 3.38709677,12.1935484 C3.38709677,11.8199516 3.69091935,11.516129 4.06451613,11.516129 Z" id="Shape" fill-rule="nonzero"></path>
                                <path d="M10.6984839,0 L7.79032258,2.90816129 L7.79032258,9.65491935 C7.15998387,9.54585484 6.47816129,9.48387097 5.75806452,9.48387097 C2.52948387,9.48387097 0,10.6740968 0,12.1935484 L0,18.2903226 C0,19.8097742 2.52948387,21 5.75806452,21 C8.98664516,21 11.516129,19.8097742 11.516129,18.2903226 L11.516129,14.2258065 L15.3821613,14.2258065 L13.6886129,12.5322581 L15.0434516,11.1774194 L13.6886129,9.82258065 L15.0434516,8.46774194 L13.6886129,7.11290323 L15.0434516,5.75806452 L13.6886129,4.40322581 L15.0434516,3.0483871 L13.6886129,1.69354839 L15.3821613,0 L10.6984839,0 Z M8.94667742,2.70967742 L10.5,1.15635484 L10.5,2.70967742 L8.94667742,2.70967742 Z M5.75806452,10.1612903 C8.75225806,10.1612903 10.8387097,11.2322903 10.8387097,12.1935484 C10.8387097,13.1548065 8.75225806,14.2258065 5.75806452,14.2258065 C2.76387097,14.2258065 0.677419355,13.1548065 0.677419355,12.1935484 C0.677419355,11.2322903 2.76387097,10.1612903 5.75806452,10.1612903 Z M0.677419355,13.4877581 C1.63867742,14.3372419 3.53172581,14.9032258 5.75806452,14.9032258 C7.98440323,14.9032258 9.87745161,14.3372419 10.8387097,13.4877581 L10.8387097,14.2258065 C10.8387097,15.1870645 8.75225806,16.2580645 5.75806452,16.2580645 C2.76387097,16.2580645 0.677419355,15.1870645 0.677419355,14.2258065 L0.677419355,13.4877581 Z M5.75806452,20.3225806 C2.76387097,20.3225806 0.677419355,19.2515806 0.677419355,18.2903226 L0.677419355,17.5522742 C1.63867742,18.4017581 3.53172581,18.9677419 5.75806452,18.9677419 C7.98440323,18.9677419 9.87745161,18.4017581 10.8387097,17.5522742 L10.8387097,18.2903226 C10.8387097,19.2515806 8.75225806,20.3225806 5.75806452,20.3225806 Z M5.75806452,18.2903226 C2.76387097,18.2903226 0.677419355,17.2193226 0.677419355,16.2580645 L0.677419355,15.5200161 C1.63867742,16.3695 3.53172581,16.9354839 5.75806452,16.9354839 C7.98440323,16.9354839 9.87745161,16.3695 10.8387097,15.5200161 L10.8387097,16.2580645 C10.8387097,17.2193226 8.75225806,18.2903226 5.75806452,18.2903226 Z M13.746871,13.5483871 L11.516129,13.5483871 L11.516129,12.8709677 L13.0694516,12.8709677 L13.746871,13.5483871 Z M13.0694516,12.1935484 L11.516129,12.1935484 C11.516129,11.9584839 11.4490645,11.7322258 11.3345806,11.516129 L13.746871,11.516129 L13.0694516,12.1935484 Z M13.746871,10.8387097 L10.7631774,10.8387097 C10.4546129,10.5826452 10.0596774,10.3546935 9.59564516,10.1612903 L13.0691129,10.1612903 L13.746871,10.8387097 Z M13.746871,8.12903226 L10.5,8.12903226 L10.5,8.80645161 L13.746871,8.80645161 L13.0694516,9.48387097 L9.14516129,9.48387097 L9.14516129,9.99159677 C8.92974194,9.91877419 8.70517742,9.85170968 8.46774194,9.79345161 L8.46774194,3.38709677 L9.14516129,3.38709677 L9.14516129,7.4516129 L13.0694516,7.4516129 L13.746871,8.12903226 Z M14.0855806,3.0483871 L12.7307419,4.40322581 L14.0855806,5.75806452 L13.0694516,6.77419355 L9.82258065,6.77419355 L9.82258065,3.38709677 L11.1774194,3.38709677 L11.1774194,2.03225806 L13.0694516,2.03225806 L14.0855806,3.0483871 Z M13.0694516,1.35483871 L11.1774194,1.35483871 L11.1774194,0.677419355 L13.746871,0.677419355 L13.0694516,1.35483871 Z" id="Shape" fill-rule="nonzero"></path>
                                <path d="M17.1339677,0 L15.4404194,1.69354839 L16.7952581,3.0483871 L15.4404194,4.40322581 L16.7952581,5.75806452 L15.4404194,7.11290323 L16.7952581,8.46774194 L15.4404194,9.82258065 L16.7952581,11.1774194 L15.4404194,12.5322581 L17.1339677,14.2258065 L21,14.2258065 L21,0 L17.1339677,0 Z M16.3982903,4.40322581 L17.753129,3.0483871 L16.737,2.03225806 L18.9677419,2.03225806 L18.9677419,6.77419355 L16.737,6.77419355 L17.753129,5.75806452 L16.3982903,4.40322581 Z M20.3225806,13.5483871 L17.4144194,13.5483871 L16.737,12.8709677 L18.2903226,12.8709677 L18.2903226,12.1935484 L16.737,12.1935484 L17.4144194,11.516129 L19.6451613,11.516129 L19.6451613,10.8387097 L17.4144194,10.8387097 L16.737,10.1612903 L19.6451613,10.1612903 L19.6451613,9.48387097 L16.737,9.48387097 L17.4144194,8.80645161 L19.6451613,8.80645161 L19.6451613,8.12903226 L17.4144194,8.12903226 L16.737,7.4516129 L19.6451613,7.4516129 L19.6451613,1.35483871 L16.737,1.35483871 L17.4144194,0.677419355 L20.3225806,0.677419355 L20.3225806,13.5483871 Z" id="Shape" fill-rule="nonzero"></path>
                                <polygon id="Path" fill-rule="nonzero" points="9.14516129 8.12903226 9.82258065 8.12903226 9.82258065 8.80645161 9.14516129 8.80645161"></polygon>
                                <polygon id="Path" fill-rule="nonzero" points="18.9677419 12.1935484 19.6451613 12.1935484 19.6451613 12.8709677 18.9677419 12.8709677"></polygon>
                            </g>
                        </g>
                    </g>
                </g>
            </g>
        </g>
    </g>
</svg>